<?xml version="1.0" encoding="UTF-8" standalone="no"?>
<svg width="77px" height="26px" viewBox="0 0 77 26" version="1.1" xmlns="http://www.w3.org/2000/svg" xmlns:xlink="http://www.w3.org/1999/xlink">
    <!-- Generator: Sketch 3.8.3 (29802) - http://www.bohemiancoding.com/sketch -->
    <title>Apple</title>
    <desc>Created with Sketch.</desc>
    <defs></defs>
    <g id="Symbols" stroke="none" stroke-width="1" fill="none" fill-rule="evenodd" opacity="0.8">
        <g id="Footer" transform="translate(-293.000000, -115.000000)">
            <g id="Apple" transform="translate(293.000000, 115.000000)">
                <rect id="Rectangle-3" fill="#000000" x="0" y="0" width="76.2280702" height="25.4468085" rx="1.38"></rect>
                <path d="M7.23753396,4.42553191 C6.54818009,4.42553191 5.98934837,5.04600283 5.98934837,5.81437512 L5.98934837,20.1856249 C5.98934837,20.9526618 6.54756194,21.5744681 7.23753396,21.5744681 L13.4529422,21.5744681 C14.1422961,21.5744681 14.7011278,20.9539972 14.7011278,20.1856249 L14.7011278,5.81437512 C14.7011278,5.0473382 14.1429143,4.42553191 13.4529422,4.42553191 L7.23753396,4.42553191 L7.23753396,4.42553191 Z M6.80607769,6.67457272 L6.80607769,19.3254273 L13.8843985,19.3254273 L13.8843985,6.67457272 L6.80607769,6.67457272 L6.80607769,6.67457272 Z M10.3452381,21.0122079 C10.6459495,21.0122079 10.8897243,20.7604754 10.8897243,20.4499477 C10.8897243,20.1394199 10.6459495,19.8876875 10.3452381,19.8876875 C10.0445267,19.8876875 9.80075188,20.1394199 9.80075188,20.4499477 C9.80075188,20.7604754 10.0445267,21.0122079 10.3452381,21.0122079 L10.3452381,21.0122079 Z M9.25626566,5.55005232 C9.25626566,5.70531619 9.34984923,5.83118242 9.47305777,5.83118242 L11.2174184,5.83118242 C11.3371494,5.83118242 11.4342105,5.70077539 11.4342105,5.55005232 C11.4342105,5.39478845 11.340627,5.26892222 11.2174184,5.26892222 L9.47305777,5.26892222 C9.35332679,5.26892222 9.25626566,5.39932925 9.25626566,5.55005232 Z" id="iPhone-Vector" fill="#FFFFFF"></path>
                <path d="M22.677028,9.14778608 L23.2774089,9.14778608 L21.5874479,4.56392589 L21.0220099,4.56392589 L19.3320489,9.14778608 L19.9324298,9.14778608 L20.3930395,7.83584273 L22.2164184,7.83584273 L22.677028,9.14778608 Z M21.279316,5.30407795 L21.3301419,5.30407795 L22.0480576,7.34982013 L20.5614002,7.34982013 L21.279316,5.30407795 Z M23.433479,5.72339156 L24.7009497,9.14778608 L25.2600345,9.14778608 L26.5275052,5.72339156 L25.9430075,5.72339156 L25.0059051,8.54422861 L24.9550792,8.54422861 L24.0179768,5.72339156 L23.433479,5.72339156 Z M28.3513,8.72847247 C27.9542227,8.72847247 27.6587972,8.5251689 27.6587972,8.17574089 C27.6587972,7.83266611 27.8875137,7.65159887 28.4084791,7.61665607 L29.3296984,7.55630032 L29.3296984,7.87078553 C29.3296984,8.35998475 28.9135614,8.72847247 28.3513,8.72847247 L28.3513,8.72847247 Z M28.2496482,9.20814183 C28.7070812,9.20814183 29.0819222,9.00801488 29.3042855,8.64270378 L29.3551113,8.64270378 L29.3551113,9.14778608 L29.8760767,9.14778608 L29.8760767,6.80344178 C29.8760767,6.09187929 29.4091139,5.66303582 28.5736632,5.66303582 C27.843041,5.66303582 27.3030159,6.0251703 27.2299537,6.57472527 L27.7826853,6.57472527 C27.8589241,6.30471271 28.1448198,6.14905842 28.5546035,6.14905842 C29.0660391,6.14905842 29.3296984,6.38095155 29.3296984,6.80344178 L29.3296984,7.11475038 L28.3417701,7.17510612 C27.5444389,7.2227554 27.0933591,7.57536003 27.0933591,8.18844736 C27.0933591,8.81424116 27.585735,9.20814183 28.2496482,9.20814183 L28.2496482,9.20814183 Z M31.0645478,9.14778608 L31.6109262,9.14778608 L31.6109262,5.72339156 L31.0645478,5.72339156 L31.0645478,9.14778608 Z M31.337737,5.02771216 C31.5473938,5.02771216 31.7189312,4.85617477 31.7189312,4.64651796 C31.7189312,4.43686116 31.5473938,4.26532377 31.337737,4.26532377 C31.1280802,4.26532377 30.9565428,4.43686116 30.9565428,4.64651796 C30.9565428,4.85617477 31.1280802,5.02771216 31.337737,5.02771216 L31.337737,5.02771216 Z M32.8502232,9.14778608 L33.3966015,9.14778608 L33.3966015,4.36379894 L32.8502232,4.36379894 L32.8502232,9.14778608 Z M35.6778293,8.72847247 C35.280752,8.72847247 34.9853265,8.5251689 34.9853265,8.17574089 C34.9853265,7.83266611 35.214043,7.65159887 35.7350084,7.61665607 L36.6562277,7.55630032 L36.6562277,7.87078553 C36.6562277,8.35998475 36.2400907,8.72847247 35.6778293,8.72847247 L35.6778293,8.72847247 Z M35.5761775,9.20814183 C36.0336105,9.20814183 36.4084515,9.00801488 36.6308148,8.64270378 L36.6816407,8.64270378 L36.6816407,9.14778608 L37.2026061,9.14778608 L37.2026061,6.80344178 C37.2026061,6.09187929 36.7356432,5.66303582 35.9001926,5.66303582 C35.1695704,5.66303582 34.6295452,6.0251703 34.556483,6.57472527 L35.1092146,6.57472527 C35.1854534,6.30471271 35.4713491,6.14905842 35.8811329,6.14905842 C36.3925684,6.14905842 36.6562277,6.38095155 36.6562277,6.80344178 L36.6562277,7.11475038 L35.6682994,7.17510612 C34.8709682,7.2227554 34.4198884,7.57536003 34.4198884,8.18844736 C34.4198884,8.81424116 34.9122643,9.20814183 35.5761775,9.20814183 L35.5761775,9.20814183 Z M40.0810381,9.20814183 C40.9482549,9.20814183 41.5168696,8.50610919 41.5168696,7.43558882 C41.5168696,6.35871522 40.9514315,5.66303582 40.0810381,5.66303582 C39.6108986,5.66303582 39.1947616,5.89492895 39.0073411,6.26341667 L38.9565152,6.26341667 L38.9565152,4.36379894 L38.4101369,4.36379894 L38.4101369,9.14778608 L38.9311023,9.14778608 L38.9311023,8.60140774 L38.9819282,8.60140774 C39.1979382,8.98260193 39.6045453,9.20814183 40.0810381,9.20814183 L40.0810381,9.20814183 Z M39.9539734,6.15541165 C40.5797672,6.15541165 40.9514315,6.63508101 40.9514315,7.43558882 C40.9514315,8.23609663 40.5797672,8.715766 39.9539734,8.715766 C39.3313562,8.715766 38.9438087,8.22656678 38.9438087,7.43558882 C38.9438087,6.64461087 39.3313562,6.15541165 39.9539734,6.15541165 L39.9539734,6.15541165 Z M42.5719227,9.14778608 L43.118301,9.14778608 L43.118301,4.36379894 L42.5719227,4.36379894 L42.5719227,9.14778608 Z M45.7108374,6.1458818 C46.2540391,6.1458818 46.6161736,6.5461357 46.6288801,7.1528698 L44.7419688,7.1528698 C44.7832648,6.5461357 45.164459,6.1458818 45.7108374,6.1458818 L45.7108374,6.1458818 Z M46.612997,8.26150958 C46.4700492,8.56328832 46.171447,8.72529585 45.7298971,8.72529585 C45.1485759,8.72529585 44.7705584,8.29645238 44.7419688,7.61983269 L44.7419688,7.59441974 L47.203848,7.59441974 L47.203848,7.38476293 C47.203848,6.3205958 46.6415865,5.66303582 45.7171906,5.66303582 C44.7769116,5.66303582 44.1733541,6.36189184 44.1733541,7.43876544 C44.1733541,8.52199228 44.7673818,9.20814183 45.7171906,9.20814183 C46.4668725,9.20814183 46.9941912,8.84918396 47.1593753,8.26150958 L46.612997,8.26150958 Z M51.6360622,8.715766 C50.9880321,8.715766 50.622721,8.24562649 50.622721,7.43558882 C50.622721,6.62237454 50.9880321,6.15541165 51.6360622,6.15541165 C52.2840923,6.15541165 52.6494034,6.62237454 52.6494034,7.43558882 C52.6494034,8.24562649 52.2840923,8.715766 51.6360622,8.715766 L51.6360622,8.715766 Z M51.6360622,9.20814183 C52.611284,9.20814183 53.2148415,8.53469875 53.2148415,7.43558882 C53.2148415,6.33330228 52.611284,5.66303582 51.6360622,5.66303582 C50.6608404,5.66303582 50.0572829,6.33330228 50.0572829,7.43558882 C50.0572829,8.53469875 50.6608404,9.20814183 51.6360622,9.20814183 L51.6360622,9.20814183 Z M54.2381284,9.14778608 L54.7845068,9.14778608 L54.7845068,7.12110361 C54.7845068,6.52072276 55.1371114,6.15541165 55.6834897,6.15541165 C56.2298681,6.15541165 56.4903508,6.44766054 56.4903508,7.06392448 L56.4903508,9.14778608 L57.0367291,9.14778608 L57.0367291,6.93050652 C57.0367291,6.11729223 56.6078857,5.66303582 55.839144,5.66303582 C55.315002,5.66303582 54.9814571,5.8853991 54.8099197,6.26341667 L54.7590938,6.26341667 L54.7590938,5.72339156 L54.2381284,5.72339156 L54.2381284,9.14778608 Z M60.4301892,4.83711506 L60.4301892,5.72339156 L59.8774576,5.72339156 L59.8774576,6.1808246 L60.4301892,6.1808246 L60.4301892,8.25833296 C60.4301892,8.91271633 60.7129082,9.17319903 61.4181174,9.17319903 C61.5261225,9.17319903 61.6309509,9.16049256 61.7389559,9.14143285 L61.7389559,8.68082319 C61.6373041,8.69035305 61.5833016,8.69352967 61.4848264,8.69352967 C61.1290452,8.69352967 60.9765675,8.52199228 60.9765675,8.11856176 L60.9765675,6.1808246 L61.7389559,6.1808246 L61.7389559,5.72339156 L60.9765675,5.72339156 L60.9765675,4.83711506 L60.4301892,4.83711506 Z M62.7622428,9.14778608 L63.3086212,9.14778608 L63.3086212,7.12110361 C63.3086212,6.54295908 63.6453427,6.15541165 64.25843,6.15541165 C64.7762188,6.15541165 65.049408,6.45719039 65.049408,7.06392448 L65.049408,9.14778608 L65.5957863,9.14778608 L65.5957863,6.93050652 C65.5957863,6.12682209 65.1383533,5.66303582 64.4140843,5.66303582 C63.8899423,5.66303582 63.5309845,5.8853991 63.3594471,6.26341667 L63.3086212,6.26341667 L63.3086212,4.36379894 L62.7622428,4.36379894 L62.7622428,9.14778608 Z M68.1247904,6.1458818 C68.6679921,6.1458818 69.0301266,6.5461357 69.042833,7.1528698 L67.1559218,7.1528698 C67.1972178,6.5461357 67.578412,6.1458818 68.1247904,6.1458818 L68.1247904,6.1458818 Z M69.0269499,8.26150958 C68.8840021,8.56328832 68.5854,8.72529585 68.1438501,8.72529585 C67.5625289,8.72529585 67.1845113,8.29645238 67.1559218,7.61983269 L67.1559218,7.59441974 L69.6178009,7.59441974 L69.6178009,7.38476293 C69.6178009,6.3205958 69.0555395,5.66303582 68.1311436,5.66303582 C67.1908646,5.66303582 66.5873071,6.36189184 66.5873071,7.43876544 C66.5873071,8.52199228 67.1813347,9.20814183 68.1311436,9.20814183 C68.8808255,9.20814183 69.4081441,8.84918396 69.5733283,8.26150958 L69.0269499,8.26150958 Z" id="Available-on-the" fill="#FFFFFF"></path>
                <path d="M25.363041,21.1477861 L26.5075969,21.1477861 L23.2858841,12.4091929 L22.2079426,12.4091929 L18.9862298,21.1477861 L20.1307857,21.1477861 L21.0088841,18.6467196 L24.4849426,18.6467196 L25.363041,21.1477861 Z M22.6984665,13.8202062 L22.7953602,13.8202062 L24.1639825,17.7201743 L21.3298442,17.7201743 L22.6984665,13.8202062 Z M30.5269204,14.5045174 C29.6367103,14.5045174 28.8555055,14.9587062 28.4376518,15.7096318 L28.3407582,15.7096318 L28.3407582,14.6195786 L27.3475986,14.6195786 L27.3475986,23.3278925 L28.389205,23.3278925 L28.389205,20.1667382 L28.4860986,20.1667382 C28.8433938,20.8571052 29.5943194,21.2628473 30.5269204,21.2628473 C32.1862237,21.2628473 33.270221,19.9245042 33.270221,17.8836823 C33.270221,15.8307488 32.1922795,14.5045174 30.5269204,14.5045174 L30.5269204,14.5045174 Z M30.2786305,20.3241903 C29.1037954,20.3241903 28.3589257,19.3794776 28.3589257,17.8836823 C28.3589257,16.3818312 29.1037954,15.4431743 30.2846864,15.4431743 C31.4776891,15.4431743 32.1922795,16.3576078 32.1922795,17.8836823 C32.1922795,19.4097568 31.4776891,20.3241903 30.2786305,20.3241903 L30.2786305,20.3241903 Z M37.5257227,14.5045174 C36.6355126,14.5045174 35.8543078,14.9587062 35.4364541,15.7096318 L35.3395605,15.7096318 L35.3395605,14.6195786 L34.3464009,14.6195786 L34.3464009,23.3278925 L35.3880073,23.3278925 L35.3880073,20.1667382 L35.4849009,20.1667382 C35.8421961,20.8571052 36.5931217,21.2628473 37.5257227,21.2628473 C39.185026,21.2628473 40.2690233,19.9245042 40.2690233,17.8836823 C40.2690233,15.8307488 39.1910818,14.5045174 37.5257227,14.5045174 L37.5257227,14.5045174 Z M37.2774328,20.3241903 C36.1025977,20.3241903 35.357728,19.3794776 35.357728,17.8836823 C35.357728,16.3818312 36.1025977,15.4431743 37.2834887,15.4431743 C38.4764914,15.4431743 39.1910818,16.3576078 39.1910818,17.8836823 C39.1910818,19.4097568 38.4764914,20.3241903 37.2774328,20.3241903 L37.2774328,20.3241903 Z M44.0019602,18.8647302 C44.1170214,20.3726371 45.394806,21.353685 47.2478964,21.353685 C49.2463273,21.353685 50.5120002,20.3302462 50.5120002,18.7254456 C50.5120002,17.4416052 49.7852981,16.7391265 47.9745986,16.2849376 L47.060165,16.0427036 C45.8550507,15.7338552 45.3766384,15.3402248 45.3766384,14.6559137 C45.3766384,13.7717594 46.1457315,13.1903977 47.3084549,13.1903977 C48.3985081,13.1903977 49.137322,13.7233126 49.2887183,14.6195786 L50.3848273,14.6195786 C50.2939896,13.2085652 49.0343725,12.203294 47.3447901,12.203294 C45.4977555,12.203294 44.256306,13.2085652 44.256306,14.6922488 C44.256306,15.9336983 44.9406172,16.6482887 46.5211943,17.0479749 L47.6415268,17.3386557 C48.8466411,17.6414483 49.3916677,18.1138047 49.3916677,18.8586744 C49.3916677,19.7246611 48.525681,20.3605254 47.3508459,20.3605254 C46.1093964,20.3605254 45.2373539,19.7791637 45.1041251,18.8647302 L44.0019602,18.8647302 Z M52.0665923,12.9299961 L52.0665923,14.6195786 L51.0128742,14.6195786 L51.0128742,15.4916211 L52.0665923,15.4916211 L52.0665923,19.4521478 C52.0665923,20.6996531 52.6055631,21.1962329 53.949962,21.1962329 C54.155861,21.1962329 54.3557041,21.1720095 54.561603,21.1356744 L54.561603,20.257576 C54.3678158,20.2757435 54.2648663,20.2817994 54.0771349,20.2817994 C53.3988796,20.2817994 53.1081987,19.9547834 53.1081987,19.1856903 L53.1081987,15.4916211 L54.561603,15.4916211 L54.561603,14.6195786 L53.1081987,14.6195786 L53.1081987,12.9299961 L52.0665923,12.9299961 Z M58.1691287,20.3241903 C56.933735,20.3241903 56.2373121,19.4279244 56.2373121,17.8836823 C56.2373121,16.3333844 56.933735,15.4431743 58.1691287,15.4431743 C59.4045223,15.4431743 60.1009452,16.3333844 60.1009452,17.8836823 C60.1009452,19.4279244 59.4045223,20.3241903 58.1691287,20.3241903 L58.1691287,20.3241903 Z M58.1691287,21.2628473 C60.0282749,21.2628473 61.1788867,19.9790068 61.1788867,17.8836823 C61.1788867,15.782302 60.0282749,14.5045174 58.1691287,14.5045174 C56.3099824,14.5045174 55.1593706,15.782302 55.1593706,17.8836823 C55.1593706,19.9790068 56.3099824,21.2628473 58.1691287,21.2628473 L58.1691287,21.2628473 Z M62.2550666,21.1477861 L63.2966729,21.1477861 L63.2966729,17.1024775 C63.2966729,16.1819882 64.0173192,15.5158445 65.0104788,15.5158445 C65.2163778,15.5158445 65.5918405,15.5521796 65.6766224,15.576403 L65.6766224,14.5347966 C65.5433937,14.5166291 65.3253831,14.5045174 65.1558192,14.5045174 C64.2898325,14.5045174 63.538907,14.9526504 63.3451198,15.5885147 L63.2482261,15.5885147 L63.2482261,14.6195786 L62.2550666,14.6195786 L62.2550666,21.1477861 Z M68.842071,15.4250068 C69.8776215,15.4250068 70.5679885,16.188044 70.5922119,17.3447116 L66.9950364,17.3447116 C67.0737624,16.188044 67.8004646,15.4250068 68.842071,15.4250068 L68.842071,15.4250068 Z M70.5619327,19.4582036 C70.2894194,20.0335095 69.7201694,20.3423579 68.8784061,20.3423579 C67.7701853,20.3423579 67.049539,19.524818 66.9950364,18.2349217 L66.9950364,18.1864749 L71.688321,18.1864749 L71.688321,17.7867887 C71.688321,15.7580786 70.6164354,14.5045174 68.8541827,14.5045174 C67.0616507,14.5045174 65.911039,15.8368046 65.911039,17.8897382 C65.911039,19.9547834 67.0434832,21.2628473 68.8541827,21.2628473 C70.2833635,21.2628473 71.2886348,20.5785361 71.6035391,19.4582036 L70.5619327,19.4582036 Z" id="App-Store" fill="#FFFFFF"></path>
            </g>
        </g>
    </g>
</svg>