<?xml version="1.0" encoding="UTF-8" standalone="no"?>
<svg width="19px" height="19px" viewBox="0 0 19 19" version="1.1" xmlns="http://www.w3.org/2000/svg" xmlns:xlink="http://www.w3.org/1999/xlink">
    <!-- Generator: Sketch 3.8.3 (29802) - http://www.bohemiancoding.com/sketch -->
    <title>Facebook</title>
    <desc>Created with Sketch.</desc>
    <defs></defs>
    <g id="Symbols" stroke="none" stroke-width="1" fill="none" fill-rule="evenodd">
        <g id="Footer" transform="translate(-319.000000, -50.000000)" fill="#4A4A4A">
            <g id="Group-2">
                <g id="Group-5" transform="translate(239.000000, 50.000000)">
                    <path d="M89.4881396,0 C84.2483142,0 80,4.24831417 80,9.48813963 C80,14.7279651 84.2483142,18.9762793 89.4881396,18.9762793 C94.7279651,18.9762793 98.9762793,14.7279651 98.9762793,9.48813963 C98.9762793,4.24714374 94.7279651,0 89.4881396,0 L89.4881396,0 Z M91.9408172,9.48693018 L90.3859384,9.48810062 L90.384768,15.180961 L88.2511109,15.180961 L88.2511109,9.48813963 L86.8279055,9.48813963 L86.8279055,7.52645791 L88.2511109,7.52528747 L88.248731,6.37011088 C88.248731,4.769 88.6828049,3.79527926 90.5673943,3.79527926 L92.1376838,3.79527926 L92.1376838,5.75813142 L91.155653,5.75813142 C90.4215195,5.75813142 90.3859384,6.03209035 90.3859384,6.54325667 L90.3835585,7.52528747 L92.1483347,7.52528747 L91.9408172,9.48693018 L91.9408172,9.48693018 Z" id="Facebook"></path>
                </g>
            </g>
        </g>
    </g>
</svg>