<?xml version="1.0" encoding="UTF-8" standalone="no"?>
<svg width="76px" height="25px" viewBox="0 0 76 25" version="1.1" xmlns="http://www.w3.org/2000/svg" xmlns:xlink="http://www.w3.org/1999/xlink">
    <!-- Generator: Sketch 3.8.3 (29802) - http://www.bohemiancoding.com/sketch -->
    <title>Google</title>
    <desc>Created with Sketch.</desc>
    <defs></defs>
    <g id="Symbols" stroke="none" stroke-width="1" fill="none" fill-rule="evenodd" opacity="0.8">
        <g id="Footer" transform="translate(-204.000000, -115.000000)">
            <g id="Google" transform="translate(204.000000, 115.000000)">
                <rect id="Rectangle-4" fill="#000000" x="0" y="0" width="75.3266335" height="24.8768252" rx="1.38"></rect>
                <path d="M51.9108178,17.8111183 L51.3598419,18.3316724 C51.2328511,18.4017865 51.1062018,18.4831872 50.9798938,18.5409885 C50.5972147,18.7150766 50.2080496,18.7588552 49.8622388,18.7588552 C49.4942388,18.7588552 48.9173185,18.7352558 48.3291329,18.3087571 C47.5115448,17.7314277 47.1541273,16.7399122 47.1541273,15.8756282 C47.1541273,14.0861806 48.6080346,13.2085577 49.7936228,13.2085577 C50.208391,13.2085577 50.634083,13.3125318 50.9802352,13.5317664 C51.5557899,13.9127765 51.7046285,14.4083632 51.7872408,14.6741126 L49.0787879,15.7702861 L48.191901,15.8393741 C48.4789957,17.306297 49.4696599,18.1596365 50.5644429,18.1596365 C51.1113224,18.1596365 51.5172148,17.9811021 51.8896527,17.7964114 C51.8893113,17.7967534 51.964072,17.7577632 51.9108178,17.8111183 L51.9108178,17.8111183 Z M50.2770069,14.8926633 C50.4971925,14.8126306 50.611211,14.7432006 50.611211,14.5827933 C50.611211,14.1217506 50.0906173,13.5895678 49.4693186,13.5895678 C49.0088065,13.5895678 48.1451329,13.9486886 48.1451329,15.1953508 C48.1451329,15.3899601 48.1680049,15.5972241 48.179953,15.8044881 L50.2770069,14.8926633 L50.2770069,14.8926633 Z" id="Shape" fill="#FFFFFF"></path>
                <path d="M46.8327863,17.3836316 C46.8327863,17.8323615 46.9126676,17.9021336 47.2912501,17.9370196 C47.4885637,17.9602769 47.6851945,17.9708796 47.8801185,17.9937949 L47.454085,18.2479156 L45.4239402,18.2479156 C45.6902111,17.9017916 45.735955,17.8675896 45.735955,17.6367262 L45.735955,17.3791853 L45.7315172,10.5172419 L44.8350719,10.5172419 L45.6977213,10.1006618 L47.3451871,10.1006618 C46.988111,10.3075838 46.8816026,10.4341311 46.8355173,10.8377145 L46.8327863,17.3836316 L46.8327863,17.3836316 Z" id="Shape" fill="#FFFFFF"></path>
                <path d="M43.7201209,13.6261639 C43.9843436,13.8440305 44.536685,14.3060993 44.536685,15.1833801 C44.536685,16.0380876 44.0556905,16.4409869 43.5705996,16.822339 C43.421761,16.9724857 43.2480021,17.1352871 43.2480021,17.3870137 C43.2480021,17.6421605 43.4221023,17.7806785 43.5473862,17.8839685 L43.9635198,18.2058091 C44.4694345,18.6336759 44.9306293,19.0259726 44.9306293,19.8228788 C44.9306293,20.9087917 43.8819317,22.003255 41.9002618,22.003255 C40.2309481,22.003255 39.4239425,21.2070329 39.4239425,20.3530095 C39.4239425,19.9371134 39.6301318,19.3484973 40.3118535,18.945598 C41.0260057,18.5081546 41.993798,18.4496692 42.5116607,18.4154673 C42.3498499,18.2061511 42.1651672,17.9869164 42.1651672,17.6291637 C42.1651672,17.4335284 42.2238833,17.3168996 42.2805512,17.1794077 C42.1545846,17.1913784 42.0275939,17.2036911 41.9122098,17.2036911 C40.6904361,17.2036911 39.9994973,16.2904982 39.9994973,15.3903021 C39.9994973,14.8594873 40.2411893,14.2708713 40.7375456,13.8436885 C41.3943471,13.3019291 42.1774566,13.2085577 42.7997795,13.2085577 L45.1736869,13.2085577 L44.4356386,13.6261639 L43.7201209,13.6261639 L43.7201209,13.6261639 Z M42.9035568,18.7499626 C42.8093379,18.7376499 42.75267,18.7376499 42.6386514,18.7376499 C42.5341913,18.7376499 41.9118685,18.7602232 41.4298499,18.9223406 C41.1748443,19.015712 40.4378201,19.291722 40.4378201,20.1118855 C40.4378201,20.9299969 41.2335604,21.519639 42.4648926,21.519639 C43.5705996,21.519639 44.1581024,20.9884823 44.1581024,20.2733189 C44.157761,19.6847028 43.7778129,19.3741488 42.9035568,18.7499626 L42.9035568,18.7499626 Z M43.23503,16.5569316 C43.5013009,16.2908402 43.5245142,15.9228269 43.5245142,15.7135108 C43.5245142,14.8834287 43.0305476,13.5905939 42.0729965,13.5905939 C41.7742952,13.5905939 41.4506736,13.7410826 41.267015,13.972972 C41.0724324,14.2134119 41.0140576,14.525334 41.0140576,14.8252854 C41.0140576,15.5982501 41.4636458,16.8801404 42.4536273,16.8801404 C42.7420874,16.8801404 43.0527368,16.7395702 43.23503,16.5569316 L43.23503,16.5569316 Z" id="Shape" fill="#FFFFFF"></path>
                <path d="M36.0506594,18.7352558 C34.219535,18.7352558 33.2397947,17.306297 33.2397947,16.0131201 C33.2397947,14.5017346 34.4714682,13.2085577 36.2233941,13.2085577 C37.9169453,13.2085577 38.977591,14.5369627 38.977591,15.9317194 C38.977591,17.2936423 37.9292347,18.7352558 36.0506594,18.7352558 L36.0506594,18.7352558 Z M37.4912532,17.8015417 C37.7698135,17.4321603 37.8374054,16.9711176 37.8374054,16.5217036 C37.8374054,15.5052207 37.3540213,13.5666525 35.9253755,13.5666525 C35.5454275,13.5666525 35.1627484,13.7154311 34.8869191,13.9586072 C34.4369895,14.3625326 34.3567669,14.8697479 34.3567669,15.3677288 C34.3567669,16.5080228 34.9190081,18.3887897 36.3152234,18.3887897 C36.7661771,18.3887897 37.2260064,18.1702391 37.4912532,17.8015417 L37.4912532,17.8015417 Z" id="Shape" fill="#FFFFFF"></path>
                <path d="M29.8654875,18.7352558 C28.0340216,18.7352558 27.0556468,17.306297 27.0556468,16.0131201 C27.0556468,14.5017346 28.2876617,13.2085577 30.0389049,13.2085577 C31.7314319,13.2085577 32.7910535,14.5369627 32.7910535,15.9317194 C32.7913949,17.2936423 31.7444041,18.7352558 29.8654875,18.7352558 L29.8654875,18.7352558 Z M31.3064226,17.8015417 C31.5829347,17.4321603 31.651892,16.9711176 31.651892,16.5217036 C31.651892,15.5052207 31.1671425,13.5666525 29.7398622,13.5666525 C29.3585486,13.5666525 28.9799661,13.7154311 28.703454,13.9586072 C28.2528417,14.3625326 28.1729604,14.8697479 28.1729604,15.3677288 C28.1729604,16.5080228 28.7375913,18.3887897 30.131417,18.3887897 C30.5813465,18.3887897 31.0404931,18.1702391 31.3064226,17.8015417 L31.3064226,17.8015417 Z" id="Shape" fill="#FFFFFF"></path>
                <path d="M26.7663679,18.3001496 L25.2219967,18.6541401 C24.5962602,18.7529838 24.0343603,18.8401989 23.4393473,18.8401989 C20.4601856,18.8401989 19.325462,16.6430637 19.325462,14.9240721 C19.325462,12.8240705 20.9336699,10.8776358 23.6875254,10.8776358 C24.270249,10.8776358 24.8311247,10.9634828 25.3418186,11.1026848 C26.1512139,11.330812 26.5294551,11.6112683 26.7663679,11.7761218 L25.8692398,12.6298032 L25.4909986,12.7146242 L25.7606832,12.2836792 C25.3954142,11.9262685 24.7239336,11.2665123 23.4495885,11.2665123 C21.7457961,11.2665123 20.4601856,12.5641354 20.4601856,14.4585832 C20.4601856,16.493259 21.9280893,18.4072018 24.2815143,18.4072018 C24.9731359,18.4072018 25.3291878,18.2679998 25.652468,18.1380322 L25.652468,16.3937312 L24.0220709,16.4816303 L24.8864271,16.0164834 L27.1746499,16.0164834 L26.8950655,16.286337 C26.8192807,16.3506367 26.8093809,16.372526 26.7882158,16.458715 C26.7769505,16.5572167 26.7667093,16.8705068 26.7667093,16.9806372 L26.7667093,18.3001496 L26.7663679,18.3001496 Z" id="Shape" fill="#FFFFFF"></path>
                <path d="M55.4670357,17.1076785 L55.4670357,20.0476808 L54.8843121,20.0476808 L54.8843121,12.5670236 L55.4670357,12.5670236 L55.4670357,13.4186529 C55.846301,12.868343 56.5399708,12.4315837 57.3459523,12.4315837 C58.7906426,12.4315837 59.7642382,13.5298093 59.7642382,15.268296 C59.7642382,16.995154 58.7906426,18.116295 57.3459523,18.116295 C56.5853734,18.116637 55.9039931,17.7236562 55.4670357,17.1076785 L55.4670357,17.1076785 Z M59.1381603,15.268638 C59.1381603,13.9583602 58.4564385,12.9589783 57.2476369,12.9589783 C56.4969579,12.9589783 55.7790506,13.5503305 55.4670357,14.0654124 L55.4670357,16.459893 C55.7790506,16.9763429 56.4969579,17.5889004 57.2476369,17.5889004 C58.4564385,17.5889004 59.1381603,16.580968 59.1381603,15.268638 L59.1381603,15.268638 Z" id="Shape" fill="#FFFFFF"></path>
                <polygon id="Shape" fill="#FFFFFF" points="60.2954415 18.357951 60.2954415 10.8776358 60.8778237 10.8776358 60.8778237 18.357951 60.2954415 18.357951"></polygon>
                <path d="M67.8237247,20.2052569 C67.9479845,20.2606641 68.1606598,20.2952081 68.2958435,20.2952081 C68.6522368,20.2952081 68.900415,20.1491657 69.1233315,19.6330578 L69.5483408,18.6685619 L67.2526078,13.2085577 L67.9025819,13.2085577 L69.871621,17.9400597 L71.8215432,13.2085577 L72.4807343,13.2085577 L69.6811349,19.8139863 C69.3906265,20.4946057 68.9335281,20.8219186 68.3057433,20.8219186 C68.1173054,20.8219186 67.8691273,20.7880587 67.7233611,20.7435961 L67.8237247,20.2052569 L67.8237247,20.2052569 Z" id="Shape" fill="#FFFFFF"></path>
                <path d="M65.7747774,17.9671743 C65.7358609,17.7794054 65.7065028,17.6142099 65.6849963,17.4756919 C65.6669036,17.3378579 65.6570037,17.1969457 65.6570037,17.0536394 C65.4569592,17.3474344 65.173961,17.5919786 64.8124471,17.7848778 C64.4505918,17.978461 64.1071706,18.0738845 63.6353932,18.0738845 C63.06769,18.0738845 62.6273189,17.9339984 62.3125731,17.650122 C61.9991927,17.3665875 61.8414784,16.9824993 61.8414784,16.4964891 C61.8414784,16.011163 62.0698569,15.6171562 62.5252484,15.3158368 C62.9806399,15.0131492 63.5695082,14.8630026 64.2976567,14.8630026 L65.6566624,14.8630026 L65.6566624,14.1899076 C65.6566624,13.8023991 65.524551,13.4980015 65.2616939,13.2767147 C64.9974712,13.0557699 64.6267402,12.9435874 64.1457457,12.9435874 C63.7063988,12.9435874 63.3500054,13.0458513 63.0786139,13.2449068 C62.8096121,13.4480666 62.6744284,13.6997932 62.6744284,14.0031648 L62.0780499,14.0031648 L62.0657604,13.9740931 C62.0439126,13.5653794 62.2309849,13.2062586 62.6280017,12.8967307 C63.0229702,12.5872028 63.5411743,12.4315837 64.1785176,12.4315837 C64.8134712,12.4315837 65.3275789,12.5848086 65.7153785,12.8905743 C66.1024954,13.1932619 66.2967366,13.6307052 66.2967366,14.2025623 L66.2967366,16.874079 C66.2967366,17.0659521 66.3056123,17.2513269 66.3298498,17.4319133 C66.3544286,17.6128418 66.3936865,17.7934283 66.4459166,17.9678584 L65.7747774,17.9678584 L65.7747774,17.9671743 Z M63.7070815,17.5417017 C64.2020723,17.5417017 64.5577829,17.4308873 64.9216864,17.2116526 C65.282859,16.9934439 65.5283061,16.7092255 65.6573451,16.3651535 L65.6573451,15.3254133 L64.2918534,15.3254133 C63.7702355,15.3254133 63.3383988,15.441016 62.9987327,15.6746156 C62.6583839,15.907189 62.4856492,16.1886713 62.4856492,16.5159843 C62.4856492,16.8244861 62.5948885,17.0717665 62.8123431,17.2588513 C63.0297976,17.4479882 63.3274748,17.5417017 63.7070815,17.5417017 L63.7070815,17.5417017 Z" id="Shape" fill="#FFFFFF"></path>
                <path d="M19.325462,4.99652931 C19.325462,3.84700074 20.1778702,3.10789594 21.2381746,3.10789594 C21.9485717,3.10789594 22.4128388,3.44717959 22.7026645,3.86341769 L22.1834362,4.16473714 C21.9868054,3.89077927 21.6423601,3.67735891 21.2381746,3.67735891 C20.5171949,3.67735891 19.9812394,4.22493263 19.9812394,4.99652931 C19.9812394,5.75752338 20.5168536,6.3156997 21.2381746,6.3156997 C21.6099297,6.3156997 21.9376477,6.14605788 22.1015067,5.98736069 L22.1015067,5.42337003 L21.008772,5.42337003 L21.008772,4.85972139 L22.7354363,4.85972139 L22.7354363,6.22267031 C22.3804084,6.62249147 21.8666421,6.890635 21.2381746,6.890635 C20.1778702,6.890635 19.325462,6.14092758 19.325462,4.99652931 L19.325462,4.99652931 Z" id="Shape" fill="#FFFFFF"></path>
                <polygon id="Shape" fill="#FFFFFF" points="23.1905544 6.75964141 23.1905544 3.10789594 25.6873561 3.10789594 25.6873561 3.6718866 23.8296045 3.6718866 23.8296045 4.61346713 25.6494637 4.61346713 25.6494637 5.17745779 23.8296045 5.17745779 23.8296045 6.19599277 25.6873561 6.19599277 25.6873561 6.75964141 23.1905544 6.75964141"></polygon>
                <polygon id="Shape" fill="#FFFFFF" points="27.386287 6.75929939 27.386287 3.6718866 26.2826283 3.6718866 26.2826283 3.10789594 29.1293373 3.10789594 29.1293373 3.6718866 28.0260199 3.6718866 28.0260199 6.75929939"></polygon>
                <polygon id="Shape" fill="#FFFFFF" points="31.6937577 6.75964141 31.6937577 3.10789594 32.3328078 3.10789594 32.3328078 6.75964141"></polygon>
                <polygon id="Shape" fill="#FFFFFF" points="34.3434534 6.75929939 34.3434534 3.6718866 33.2397947 3.6718866 33.2397947 3.10789594 36.0865036 3.10789594 36.0865036 3.6718866 34.9828449 3.6718866 34.9828449 6.75929939"></polygon>
                <path d="M37.8779055,4.99652931 C37.8779055,3.9068542 38.6483843,3.10789594 39.7414604,3.10789594 C40.8283918,3.10789594 41.6046739,3.90719622 41.6046739,4.99652931 C41.6046739,6.08586239 40.8283918,6.88516268 39.7414604,6.88516268 C38.6480429,6.88516268 37.8779055,6.08586239 37.8779055,4.99652931 L37.8779055,4.99652931 Z M40.9488965,4.99652931 C40.9488965,4.24100756 40.473364,3.67735891 39.7414604,3.67735891 C39.0037535,3.67735891 38.5336829,4.24100756 38.5336829,4.99652931 C38.5336829,5.74623672 39.0037535,6.3156997 39.7414604,6.3156997 C40.473364,6.3156997 40.9488965,5.74623672 40.9488965,4.99652931 L40.9488965,4.99652931 Z" id="Shape" fill="#FFFFFF"></path>
                <polygon id="Shape" fill="#FFFFFF" points="45.0565138 6.75964141 43.1550666 4.14832019 43.1550666 6.75964141 42.5160164 6.75964141 42.5160164 3.10789594 43.1717938 3.10789594 45.0350073 5.63747443 45.0350073 3.10789594 45.6743988 3.10789594 45.6743988 6.75964141"></polygon>
                <path d="M4.98501422,21.2024123 C4.77488409,21.1455222 4.63811088,20.9358328 4.63811088,20.611348 L4.63811088,9.90058136 C4.63811088,9.60005897 4.75391876,9.39737851 4.93749662,9.32368781 L4.93749662,9.32368781 L10.1741919,15.2926459 L4.98501422,21.2024123 L4.98501422,21.2024123 Z M5.70588296,20.975057 L12.0092114,17.3842617 L10.4739461,15.6343157 L5.70588296,20.975057 L5.70588296,20.975057 Z M12.0526167,13.1533759 L5.83713191,9.6117992 L10.4830347,14.940916 L12.0526167,13.1533759 L12.0526167,13.1533759 Z M12.4743322,13.393669 L14.9092169,14.7810638 C15.3702332,15.0437504 15.3744492,15.4671983 14.9092169,15.7322255 L12.412732,17.1543895 L10.7843889,15.2865865 L12.4743322,13.393669 L12.4743322,13.393669 Z" id="google-play" fill="#FFFFFF"></path>
            </g>
        </g>
    </g>
</svg>