<?xml version="1.0" encoding="UTF-8" standalone="no"?>
<svg width="19px" height="19px" viewBox="0 0 19 19" version="1.1" xmlns="http://www.w3.org/2000/svg" xmlns:xlink="http://www.w3.org/1999/xlink">
    <!-- Generator: Sketch 3.8.3 (29802) - http://www.bohemiancoding.com/sketch -->
    <title>Google</title>
    <desc>Created with Sketch.</desc>
    <defs></defs>
    <g id="Symbols" stroke="none" stroke-width="1" fill="none" fill-rule="evenodd">
        <g id="Footer" transform="translate(-292.000000, -50.000000)" fill="#4A4A4A">
            <g id="Group-2">
                <g id="Group-5" transform="translate(239.000000, 50.000000)">
                    <g id="Google" transform="translate(53.000000, 0.000000)">
                        <path d="M8.17,10.9972 C8.10882,10.95654 8.04612,10.91246 7.98038,10.868 C7.78924,10.80948 7.58632,10.77908 7.37846,10.77642 L7.35338,10.77642 C6.39806,10.77642 5.56054,11.3544 5.56054,12.01408 C5.56054,12.73228 6.27836,13.29354 7.19416,13.29354 C8.40218,13.29354 9.01436,12.8763 9.01436,12.0555 C9.01436,11.97798 9.00524,11.89742 8.98586,11.81648 C8.90416,11.49804 8.61194,11.2993 8.17,10.9972 L8.17,10.9972 Z" id="Shape"></path>
                        <path d="M7.49322,8.49376 L7.49398,8.49376 C7.72236,8.49376 7.91502,8.4037 8.06436,8.2327 C8.29844,7.96594 8.40218,7.52818 8.34062,7.06344 C8.23232,6.23276 7.63838,5.54116 7.0186,5.5233 L6.9939,5.52254 C6.77464,5.52254 6.57894,5.61298 6.43036,5.78322 C6.1997,6.04656 6.10204,6.4638 6.16246,6.92778 C6.27114,7.7577 6.87762,8.47476 7.48448,8.49376 L7.49322,8.49376 L7.49322,8.49376 L7.49322,8.49376 Z" id="Shape"></path>
                        <path d="M9.43388,0 C4.23206,0 0,4.23206 0,9.43388 C0,14.63532 4.23206,18.86776 9.43388,18.86776 C14.63532,18.86776 18.86776,14.63532 18.86776,9.43388 C18.86776,4.23206 14.63608,0 9.43388,0 L9.43388,0 Z M8.34632,14.0277 C7.98988,14.13068 7.60418,14.18274 7.19948,14.18274 C6.7488,14.18274 6.3156,14.13106 5.91166,14.02884 C5.13,13.83162 4.5524,13.4577 4.2826,12.97586 C4.16632,12.76762 4.10742,12.5457 4.10742,12.3158 C4.10742,12.07906 4.16404,11.8389 4.27576,11.60102 C4.70402,10.68826 5.833,10.07418 7.08358,10.07418 L7.1193,10.07418 C7.01784,9.8952 6.96882,9.70976 6.96882,9.51482 C6.96882,9.41792 6.98174,9.31912 7.00758,9.21842 C5.69582,9.18878 4.71428,8.22814 4.71428,6.9616 C4.71428,6.06746 5.42906,5.19612 6.45126,4.84424 C6.75716,4.7386 7.06914,4.68464 7.3758,4.68464 L10.18096,4.68464 C10.27634,4.68464 10.36108,4.74658 10.39072,4.8374 C10.42036,4.92784 10.38768,5.0274 10.31054,5.08326 L9.68316,5.53736 C9.64554,5.56396 9.60032,5.5784 9.55358,5.5784 L9.329,5.5784 C9.61894,5.9261 9.7888,6.422 9.7888,6.9787 C9.7888,7.59316 9.47796,8.17418 8.91214,8.61688 C8.47514,8.95736 8.45804,9.05122 8.45804,9.2454 C8.46336,9.35218 8.76774,9.70064 9.10366,9.93814 C9.88608,10.49142 10.17716,11.03444 10.17716,11.94036 C10.17678,12.88694 9.4582,13.7047 8.34632,14.0277 L8.34632,14.0277 Z M14.6813,9.21614 C14.6813,9.33774 14.58212,9.43654 14.4609,9.43654 L12.8668,9.43654 L12.8668,11.0314 C12.8668,11.153 12.76762,11.2518 12.64716,11.2518 L12.19306,11.2518 C12.0707,11.2518 11.9719,11.153 11.9719,11.0314 L11.9719,9.43654 L10.37894,9.43654 C10.25734,9.43654 10.15854,9.3385 10.15854,9.21614 L10.15854,8.7628 C10.15854,8.6412 10.25734,8.54164 10.37894,8.54164 L11.9719,8.54164 L11.9719,6.9483 C11.9719,6.82632 12.0707,6.7279 12.19306,6.7279 L12.64716,6.7279 C12.76762,6.7279 12.8668,6.82632 12.8668,6.9483 L12.8668,8.54164 L14.46052,8.54164 C14.58174,8.54164 14.68092,8.64044 14.68092,8.76204 L14.68092,9.21614 L14.6813,9.21614 Z" id="Shape"></path>
                    </g>
                </g>
            </g>
        </g>
    </g>
</svg>