<?xml version="1.0" encoding="UTF-8" standalone="no"?>
<svg width="19px" height="19px" viewBox="0 0 19 19" version="1.1" xmlns="http://www.w3.org/2000/svg" xmlns:xlink="http://www.w3.org/1999/xlink">
    <!-- Generator: Sketch 3.8.3 (29802) - http://www.bohemiancoding.com/sketch -->
    <title>Linkedin</title>
    <desc>Created with Sketch.</desc>
    <defs></defs>
    <g id="Symbols" stroke="none" stroke-width="1" fill="none" fill-rule="evenodd">
        <g id="Footer" transform="translate(-239.000000, -50.000000)" fill="#4A4A4A">
            <g id="Group-2">
                <g id="Group-5" transform="translate(239.000000, 50.000000)">
                    <path d="M9.48813963,0 C4.24831417,0 0,4.24831417 0,9.48813963 C0,14.7279651 4.24831417,18.9762793 9.48813963,18.9762793 C14.7279651,18.9762793 18.9762793,14.7279651 18.9762793,9.48813963 C18.9762793,4.24714374 14.7279651,0 9.48813963,0 L9.48813963,0 Z M7.11610472,14.0839548 L4.74406982,14.0839548 L4.74406982,5.78181314 L7.11610472,5.78181314 L7.11610472,14.0839548 L7.11610472,14.0839548 Z M6.00360986,5.27302669 C5.38925051,5.27302669 4.89232444,4.77489117 4.89232444,4.16053183 C4.89232444,3.54617248 5.39045996,3.04803696 6.00360986,3.04803696 C6.6179692,3.04920739 7.11610472,3.54734292 7.11610472,4.16053183 C7.11610472,4.77489117 6.6179692,5.27302669 6.00360986,5.27302669 L6.00360986,5.27302669 Z M15.4182074,14.0839548 L13.0461725,14.0839548 L13.0461725,8.95087269 C13.0461725,8.34954415 12.8741971,7.92854004 12.1353039,7.92854004 C10.9101355,7.92854004 10.6741376,8.95087269 10.6741376,8.95087269 L10.6741376,14.0839548 L8.30210267,14.0839548 L8.30210267,5.78181314 L10.6741376,5.78181314 L10.6741376,6.57524846 C11.0133285,6.31552977 11.8601355,5.78298357 13.0461725,5.78298357 C13.8147166,5.78298357 15.4182074,6.24315811 15.4182074,9.02316632 L15.4182074,14.0839548 L15.4182074,14.0839548 Z" id="Linkedin"></path>
                </g>
            </g>
        </g>
    </g>
</svg>