<?xml version="1.0" encoding="UTF-8" standalone="no"?>
<svg width="251px" height="121px" viewBox="0 0 251 121" version="1.1" xmlns="http://www.w3.org/2000/svg" xmlns:xlink="http://www.w3.org/1999/xlink">
    <!-- Generator: Sketch 3.8.3 (29802) - http://www.bohemiancoding.com/sketch -->
    <title>Rewards</title>
    <desc>Created with Sketch.</desc>
    <defs>
        <polygon id="path-1" points="0 119.85706 250.506807 119.85706 250.506807 0.273252104 0 0.273252104"></polygon>
    </defs>
    <g id="PanelPlace" stroke="none" stroke-width="1" fill="none" fill-rule="evenodd">
        <g id="Account-Verified" transform="translate(-315.000000, -1322.000000)">
            <g id="Group-Copy-3" transform="translate(75.000000, 1313.000000)">
                <g id="Rewards" transform="translate(240.000000, 9.000000)">
                    <polygon id="Fill-1" fill="#FEFEFE" points="1.37609649 80.2728912 139.778377 80.2728912 139.778377 1.92431059 1.37609649 1.92431059"></polygon>
                    <path d="M0,81.6473988 L141.155024,81.6473988 L141.155024,0.549803026 L0,0.549803026 L0,81.6473988 Z M2.75219298,78.8983837 L138.402281,78.8983837 L138.402281,3.29881816 L2.75219298,3.29881816 L2.75219298,78.8983837 Z" id="Fill-2" fill="#C2C1C1"></path>
                    <polygon id="Fill-3" fill="#E7E5E4" points="46.0645548 78.9720573 138.511818 78.9720573 138.511818 12.6520672 46.0645548 12.6520672"></polygon>
                    <path d="M0,81.6473988 L141.155024,81.6473988 L141.155024,0.549803026 L0,0.549803026 L0,81.6473988 Z M2.75219298,78.8983837 L138.402281,78.8983837 L138.402281,3.29881816 L2.75219298,3.29881816 L2.75219298,78.8983837 Z" id="Fill-5" fill="#C2C1C1"></path>
                    <path d="M13.8334026,38.1622679 L81.4008412,38.1622679 L13.8334026,38.1622679 Z" id="Fill-6" fill="#FEFEFE"></path>
                    <polygon id="Fill-7" fill="#C2C1C1" points="13.8336228 39.5368854 81.4010614 39.5368854 81.4010614 36.7878703 13.8336228 36.7878703"></polygon>
                    <path d="M13.8334026,53.1093779 L60.9685605,53.1093779 L13.8334026,53.1093779 Z" id="Fill-8" fill="#FEFEFE"></path>
                    <polygon id="Fill-9" fill="#C2C1C1" points="13.8336228 54.4838305 60.9687807 54.4838305 60.9687807 51.7348154 13.8336228 51.7348154"></polygon>
                    <path d="M13.8334026,68.0564879 L71.2991921,68.0564879 L13.8334026,68.0564879 Z" id="Fill-10" fill="#FEFEFE"></path>
                    <polygon id="Fill-11" fill="#C2C1C1" points="13.8336228 69.4307756 71.2988618 69.4307756 71.2988618 66.6817604 13.8336228 66.6817604"></polygon>
                    <g id="Group-60" transform="translate(0.000000, 0.276551)">
                        <path d="M23.8946496,21.7016601 C22.8934018,22.9931474 21.582257,23.4841215 20.3256057,23.4841215 C16.3013491,23.4841215 13.9339127,20.4832966 13.9339127,16.736389 C13.9339127,12.8806204 16.3013491,9.87979544 20.3256057,9.87979544 C22.9842241,9.87979544 25.4969763,11.516559 25.8068732,14.4629535 L23.0750465,14.4629535 C22.7475355,13.0263182 21.6730794,12.2802355 20.3256057,12.2802355 C17.7583601,12.2802355 16.7934412,14.4629535 16.7934412,16.736389 C16.7934412,18.9009635 17.7583601,21.0836815 20.3256057,21.0836815 C22.183336,21.0836815 23.2572417,20.08304 23.4212724,18.2824351 L20.5441298,18.2824351 L20.5441298,16.1541476 L26.0066825,16.1541476 L26.0066825,23.1751322 L24.1858316,23.1751322 L23.8946496,21.7016601 L23.8946496,21.7016601 Z" id="Fill-12" fill="#404041"></path>
                        <mask id="mask-2" fill="white">
                            <use xlink:href="#path-1"></use>
                        </mask>
                        <g id="Clip-15"></g>
                        <path d="M28.1213575,23.1752972 L30.7067675,23.1752972 L30.7067675,13.772016 L28.1213575,13.772016 L28.1213575,23.1752972 Z M28.1213575,12.3166874 L30.7067675,12.3166874 L30.7067675,10.1883999 L28.1213575,10.1883999 L28.1213575,12.3166874 Z" id="Fill-14" fill="#404041" mask="url(#mask-2)"></path>
                        <path d="M33.3117732,15.499717 L31.7639399,15.499717 L31.7639399,13.7716861 L33.3117732,13.7716861 L33.3117732,13.0442967 C33.3117732,11.3888398 34.3499004,10.1886198 36.4624838,10.1886198 C36.9176965,10.1886198 37.3905232,10.2430503 37.8275715,10.2617436 L37.8275715,12.189353 C37.5187754,12.153066 37.2088785,12.1349225 36.8808171,12.1349225 C36.1894662,12.1349225 35.8977338,12.4257683 35.8977338,13.208138 L35.8977338,13.7716861 L37.6817053,13.7716861 L37.6817053,15.499717 L35.8977338,15.499717 L35.8977338,23.1749673 L33.3117732,23.1749673 L33.3117732,15.499717 Z" id="Fill-16" fill="#404041" mask="url(#mask-2)"></path>
                        <path d="M42.0897276,13.771906 L43.9832364,13.771906 L43.9832364,15.499937 L42.0897276,15.499937 L42.0897276,20.155669 C42.0897276,21.0287562 42.3077013,21.247028 43.1817978,21.247028 C43.4548154,21.247028 43.7102189,21.2288845 43.9832364,21.174454 L43.9832364,23.1933307 C43.5461882,23.2664545 42.9819886,23.2840482 42.471732,23.2840482 C40.8875697,23.2840482 39.5043175,22.9206284 39.5043175,21.0468997 L39.5043175,15.499937 L37.9377693,15.499937 L37.9377693,13.771906 L39.5043175,13.771906 L39.5043175,10.9525161 L42.0897276,10.9525161 L42.0897276,13.771906 Z" id="Fill-17" fill="#404041" mask="url(#mask-2)"></path>
                        <polygon id="Fill-18" fill="#FEFEFE" mask="url(#mask-2)" points="52.5646842 96.4898813 190.966965 96.4898813 190.966965 18.1413007 52.5646842 18.1413007"></polygon>
                        <path d="M53.9407807,95.1153737 L189.590868,95.1153737 L189.590868,19.5158082 L53.9407807,19.5158082 L53.9407807,95.1153737 Z M51.1891382,97.8643889 L192.343612,97.8643889 L192.343612,16.7667931 L51.1891382,16.7667931 L51.1891382,97.8643889 Z" id="Fill-19" fill="#C2C1C1" mask="url(#mask-2)"></path>
                        <polygon id="Fill-20" fill="#E7E5E4" mask="url(#mask-2)" points="103.768684 95.4644987 189.940947 95.4644987 189.940947 33.4406695 103.768684 33.4406695"></polygon>
                        <path d="M53.9407807,95.1153737 L189.590868,95.1153737 L189.590868,19.5158082 L53.9407807,19.5158082 L53.9407807,95.1153737 Z M51.1891382,97.8643889 L192.343612,97.8643889 L192.343612,16.7667931 L51.1891382,16.7667931 L51.1891382,97.8643889 Z" id="Fill-21" fill="#C2C1C1" mask="url(#mask-2)"></path>
                        <path d="M65.0221555,54.379258 L132.589594,54.379258" id="Fill-22" fill="#FEFEFE" mask="url(#mask-2)"></path>
                        <polygon id="Fill-23" fill="#C2C1C1" mask="url(#mask-2)" points="65.0222105 55.7538755 132.589649 55.7538755 132.589649 53.0048604 65.0222105 53.0048604"></polygon>
                        <path d="M65.0221555,69.326258 L112.157313,69.326258" id="Fill-24" fill="#FEFEFE" mask="url(#mask-2)"></path>
                        <polygon id="Fill-25" fill="#C2C1C1" mask="url(#mask-2)" points="65.0222105 70.7008206 112.157368 70.7008206 112.157368 67.9518054 65.0222105 67.9518054"></polygon>
                        <path d="M65.0221555,84.2732581 L122.487945,84.2732581" id="Fill-26" fill="#FEFEFE" mask="url(#mask-2)"></path>
                        <polygon id="Fill-27" fill="#C2C1C1" mask="url(#mask-2)" points="65.0222105 85.6477656 122.488 85.6477656 122.488 82.8987505 65.0222105 82.8987505"></polygon>
                        <polygon id="Fill-28" fill="#404041" mask="url(#mask-2)" points="71.182334 42.234439 67.959516 42.234439 63.7348998 29.2480915 66.6847002 29.2480915 69.5800072 38.3781206 69.6163362 38.3781206 72.5474217 29.2480915 75.4977726 29.2480915"></polygon>
                        <path d="M79.5421202,40.5425851 C81.3084776,40.5425851 81.8363482,39.0333758 81.8363482,37.5417602 C81.8363482,36.0320011 81.3084776,34.5227918 79.5421202,34.5227918 C77.7939272,34.5227918 77.2660566,36.0320011 77.2660566,37.5417602 C77.2660566,39.0333758 77.7939272,40.5425851 79.5421202,40.5425851 M79.5421202,32.5764891 C82.5106355,32.5764891 84.4217583,34.5409353 84.4217583,37.5417602 C84.4217583,40.5249914 82.5106355,42.4888878 79.5421202,42.4888878 C76.5923197,42.4888878 74.6800961,40.5249914 74.6800961,37.5417602 C74.6800961,34.5409353 76.5923197,32.5764891 79.5421202,32.5764891" id="Fill-29" fill="#404041" mask="url(#mask-2)"></path>
                        <path d="M94.5668371,42.234439 L92.1085783,42.234439 L92.1085783,40.9248082 L92.0540849,40.9248082 C91.3979621,41.9798802 90.2690125,42.4889978 89.1769423,42.4889978 C86.4269511,42.4889978 85.7350498,40.9429517 85.7350498,38.6150857 L85.7350498,32.830608 L88.3210103,32.830608 L88.3210103,38.1422551 C88.3210103,39.6877514 88.7756726,40.4519776 89.9778305,40.4519776 C91.3797976,40.4519776 91.9808765,39.6696079 91.9808765,37.760142 L91.9808765,32.830608 L94.5668371,32.830608 L94.5668371,42.234439 Z" id="Fill-30" fill="#404041" mask="url(#mask-2)"></path>
                        <path d="M102.579957,36.1415219 C102.415926,35.0864498 101.74274,34.5229017 100.667733,34.5229017 C99.0114636,34.5229017 98.4643276,36.1959524 98.4643276,37.5781572 C98.4643276,38.9246248 98.9927487,40.5426951 100.61379,40.5426951 C101.815398,40.5426951 102.507299,39.7790187 102.67133,38.6332292 L105.165367,38.6332292 C104.838407,41.1243867 103.108378,42.4889978 100.631955,42.4889978 C97.7911412,42.4889978 95.8789175,40.4882646 95.8789175,37.6688747 C95.8789175,34.7406237 97.6271105,32.576599 100.686448,32.576599 C102.908018,32.576599 104.947393,33.740532 105.111424,36.1415219 L102.579957,36.1415219 Z" id="Fill-31" fill="#404041" mask="url(#mask-2)"></path>
                        <path d="M106.259914,29.2480365 L108.845324,29.2480365 L108.845324,34.1401839 L108.900368,34.1401839 C109.555941,33.0856617 110.68489,32.576544 111.649809,32.576544 C114.39925,32.576544 115.091702,34.1225902 115.091702,36.451006 L115.091702,42.234384 L112.505741,42.234384 L112.505741,36.9232868 C112.505741,35.3772407 112.050528,34.6135643 110.848921,34.6135643 C109.446403,34.6135643 108.845324,35.395934 108.845324,37.3053999 L108.845324,42.234384 L106.259914,42.234384 L106.259914,29.2480365 Z" id="Fill-32" fill="#404041" mask="url(#mask-2)"></path>
                        <path d="M123.032714,36.5232501 C122.795475,35.2136193 122.231275,34.5225169 120.975175,34.5225169 C119.335968,34.5225169 118.862591,35.7958607 118.826262,36.5232501 L123.032714,36.5232501 Z M118.826262,38.1605635 C118.89892,39.7973271 119.700359,40.54286 121.139205,40.54286 C122.176782,40.54286 123.01455,39.9061881 123.17858,39.3244965 L125.454093,39.3244965 C124.725863,41.5435015 123.17858,42.4891627 121.047832,42.4891627 C118.079868,42.4891627 116.240302,40.4521425 116.240302,37.5420351 C116.240302,34.7226452 118.188854,32.5762142 121.047832,32.5762142 C124.252486,32.5762142 125.800319,35.2685996 125.618124,38.1605635 L118.826262,38.1605635 Z" id="Fill-33" fill="#404041" mask="url(#mask-2)"></path>
                        <path d="M126.784724,32.8308829 L129.242982,32.8308829 L129.242982,34.5770573 L129.279311,34.5770573 C129.753239,33.3949808 131.027504,32.5763241 132.284156,32.5763241 C132.4658,32.5763241 132.684875,32.6131609 132.848906,32.6675914 L132.848906,35.0680314 C132.611667,35.0136009 132.229662,34.9773139 131.919765,34.9773139 C130.026257,34.9773139 129.370684,36.3413753 129.370684,37.9968322 L129.370684,42.2347139 L126.784724,42.2347139 L126.784724,32.8308829 Z" id="Fill-34" fill="#404041" mask="url(#mask-2)"></path>
                        <polygon id="Fill-35" fill="#FEFEFE" mask="url(#mask-2)" points="110.72843 118.482552 249.130711 118.482552 249.130711 40.1339715 110.72843 40.1339715"></polygon>
                        <path d="M112.104526,117.108045 L247.754614,117.108045 L247.754614,41.5084791 L112.104526,41.5084791 L112.104526,117.108045 Z M109.352333,119.85706 L250.506807,119.85706 L250.506807,38.7594639 L109.352333,38.7594639 L109.352333,119.85706 Z" id="Fill-36" fill="#C2C1C1" mask="url(#mask-2)"></path>
                        <polygon id="Fill-37" fill="#FEFEFE" mask="url(#mask-2)" points="110.72843 118.482552 249.130711 118.482552 249.130711 40.1339715 110.72843 40.1339715"></polygon>
                        <path d="M112.104526,117.108045 L247.754614,117.108045 L247.754614,41.5084791 L112.104526,41.5084791 L112.104526,117.108045 Z M109.352333,119.85706 L250.506807,119.85706 L250.506807,38.7594639 L109.352333,38.7594639 L109.352333,119.85706 Z" id="Fill-38" fill="#C2C1C1" mask="url(#mask-2)"></path>
                        <polygon id="Fill-39" fill="#FEFEFE" mask="url(#mask-2)" points="110.72843 118.482552 249.130711 118.482552 249.130711 40.1339715 110.72843 40.1339715"></polygon>
                        <path d="M112.104526,117.108045 L247.754614,117.108045 L247.754614,41.5084791 L112.104526,41.5084791 L112.104526,117.108045 Z M109.352333,119.85706 L250.506807,119.85706 L250.506807,38.7594639 L109.352333,38.7594639 L109.352333,119.85706 Z" id="Fill-40" fill="#C2C1C1" mask="url(#mask-2)"></path>
                        <path d="M112.104526,117.108045 L247.754614,117.108045 L247.754614,41.5084791 L112.104526,41.5084791 L112.104526,117.108045 Z M109.352333,119.85706 L250.506807,119.85706 L250.506807,38.7594639 L109.352333,38.7594639 L109.352333,119.85706 Z" id="Fill-41" fill="#C2C1C1" mask="url(#mask-2)"></path>
                        <path d="M124.286283,76.3720388 L234.779125,76.3720388" id="Fill-42" fill="#FEFEFE" mask="url(#mask-2)"></path>
                        <polygon id="Fill-43" fill="#C2C1C1" mask="url(#mask-2)" points="124.286283 77.7465463 234.779125 77.7465463 234.779125 74.9975312 124.286283 74.9975312"></polygon>
                        <path d="M124.286283,91.3190388 L170.10259,91.3190388" id="Fill-44" fill="#FEFEFE" mask="url(#mask-2)"></path>
                        <polygon id="Fill-45" fill="#C2C1C1" mask="url(#mask-2)" points="124.286283 92.6934914 170.10259 92.6934914 170.10259 89.9444763 124.286283 89.9444763"></polygon>
                        <path d="M124.286283,106.266039 L181.6618,106.266039" id="Fill-46" fill="#FEFEFE" mask="url(#mask-2)"></path>
                        <polygon id="Fill-47" fill="#C2C1C1" mask="url(#mask-2)" points="124.286283 107.640436 181.6618 107.640436 181.6618 104.891421 124.286283 104.891421"></polygon>
                        <path d="M133.61952,55.6058135 C133.437325,54.3143262 132.199388,53.332378 130.778706,53.332378 C128.211461,53.332378 127.246542,55.515096 127.246542,57.7885315 C127.246542,59.9531061 128.211461,62.1358241 130.778706,62.1358241 C132.526899,62.1358241 133.510533,60.9350543 133.728507,59.2257167 L136.496662,59.2257167 C136.20493,62.4629569 133.965746,64.5362641 130.778706,64.5362641 C126.75445,64.5362641 124.387564,61.5354392 124.387564,57.7885315 C124.387564,53.9327629 126.75445,50.931938 130.778706,50.931938 C133.637684,50.931938 136.040899,52.6049886 136.387125,55.6058135 L133.61952,55.6058135 Z" id="Fill-48" fill="#404041" mask="url(#mask-2)"></path>
                        <path d="M144.037506,59.6256984 C143.600458,60.0072617 142.690032,60.025955 141.889144,60.171103 C141.087705,60.3349443 140.358925,60.6076466 140.358925,61.5538576 C140.358925,62.5176623 141.10587,62.7535278 141.943087,62.7535278 C143.964848,62.7535278 144.037506,61.1530512 144.037506,60.5895031 L144.037506,59.6256984 Z M138.064697,57.7156826 C138.210563,55.2970991 140.37764,54.5697097 142.489673,54.5697097 C144.365567,54.5697097 146.622916,54.98756 146.622916,57.242852 L146.622916,62.1355492 C146.622916,62.9904929 146.714289,63.8454366 146.950977,64.2269999 L144.328688,64.2269999 C144.237866,63.9361541 144.164657,63.626615 144.146493,63.3176257 C143.32744,64.1731192 142.125282,64.4815587 140.978168,64.4815587 C139.193646,64.4815587 137.773515,63.5908778 137.773515,61.6627186 C137.773515,59.5344311 139.375841,59.0253134 140.978168,58.8070416 C142.56233,58.5706263 144.037506,58.6256066 144.037506,57.5705346 C144.037506,56.4610321 143.272396,56.2971908 142.361971,56.2971908 C141.378887,56.2971908 140.74203,56.6974474 140.650657,57.7156826 L138.064697,57.7156826 Z" id="Fill-49" fill="#404041" mask="url(#mask-2)"></path>
                        <path d="M150.630439,61.1714696 C150.648604,62.2991156 151.595909,62.7538027 152.615321,62.7538027 C153.362266,62.7538027 154.30902,62.4629569 154.30902,61.5535827 C154.30902,60.771213 153.234564,60.4985107 151.376834,60.0988039 C149.884595,59.7711213 148.391255,59.2433103 148.391255,57.5884032 C148.391255,55.1874134 150.466959,54.5694348 152.48817,54.5694348 C154.545709,54.5694348 156.439768,55.2605372 156.639577,57.5702597 L154.181319,57.5702597 C154.108661,56.570168 153.344102,56.2974657 152.414961,56.2974657 C151.832597,56.2974657 150.976665,56.4063267 150.976665,57.1705529 C150.976665,58.0975208 152.433126,58.2250751 153.908301,58.5709012 C155.419805,58.9161775 156.894981,59.462132 156.894981,61.2077566 C156.894981,63.6813204 154.746069,64.4818336 152.597156,64.4818336 C150.412466,64.4818336 148.281718,63.6631769 148.17218,61.1714696 L150.630439,61.1714696 Z" id="Fill-50" fill="#404041" mask="url(#mask-2)"></path>
                        <path d="M158.407531,51.2406524 L160.992941,51.2406524 L160.992941,56.1333495 L161.047985,56.1333495 C161.703557,55.0782775 162.832507,54.5697097 163.797426,54.5697097 C166.546867,54.5697097 167.239318,56.115206 167.239318,58.4436218 L167.239318,64.2269999 L164.653358,64.2269999 L164.653358,58.9164524 C164.653358,57.3698565 164.198145,56.6067299 162.996538,56.6067299 C161.59402,56.6067299 160.992941,57.3885498 160.992941,59.2980157 L160.992941,64.2269999 L158.407531,64.2269999 L158.407531,51.2406524 Z" id="Fill-51" fill="#404041" mask="url(#mask-2)"></path>
                        <path d="M231.304591,62.4085264 C232.196852,62.3172591 233.270758,61.789998 233.270758,60.626065 C233.270758,59.6622603 232.742887,59.3164342 231.304591,58.9161775 L231.304591,62.4085264 Z M230.230135,53.0596757 C229.411083,53.0596757 228.590929,53.5687933 228.590929,54.5694348 C228.590929,55.3693982 229.064857,55.7515113 230.230135,56.0247634 L230.230135,53.0596757 Z M228.281583,60.0075366 C228.263418,61.3534544 229.11935,62.1902546 230.230135,62.4085264 L230.230135,58.6071882 C230.102434,58.5522079 229.883909,58.4983272 229.647221,58.4433469 C227.82692,57.9523728 226.005519,57.2425771 226.005519,54.8239936 C226.005519,52.3322863 228.044894,51.0589425 230.230135,50.931938 L230.230135,49.5310399 L231.304591,49.5310399 L231.304591,50.931938 C233.471668,51.1683533 235.25564,52.2954495 235.401506,54.8058501 L232.815545,54.8058501 C232.797381,53.8420454 232.123644,53.0596757 231.304591,53.0596757 L231.304591,56.2793222 C231.595773,56.3513464 231.90567,56.4244702 232.233181,56.5151877 C235.784061,57.4971359 235.856719,59.5165625 235.856719,60.734926 C235.856719,61.7718545 234.928129,64.2998488 231.304591,64.5362641 L231.304591,66.0823102 L230.230135,66.0823102 L230.230135,64.5362641 C227.535188,64.3361358 225.96919,62.8632135 225.696173,60.0075366 L228.281583,60.0075366 Z" id="Fill-52" fill="#404041" mask="url(#mask-2)"></path>
                        <polygon id="Fill-53" fill="#404041" mask="url(#mask-2)" points="196.30732 107.454053 237.511502 107.454053 237.511502 93.0783535 196.30732 93.0783535"></polygon>
                        <path d="M206.392952,100.528569 L207.339155,100.528569 C207.724463,100.528569 207.933629,100.363628 207.933629,99.9677703 C207.933629,99.588956 207.724463,99.4240151 207.339155,99.4240151 L206.392952,99.4240151 L206.392952,100.528569 Z M205.529313,98.7538052 L207.646851,98.7538052 C208.351412,98.7538052 208.796717,99.2431299 208.796717,99.8363674 C208.796717,100.298202 208.609568,100.644028 208.175272,100.819965 L208.175272,100.830961 C208.599109,100.940922 208.720206,101.353274 208.747177,101.748582 C208.764241,101.995994 208.758737,102.457828 208.912309,102.6772 L208.049221,102.6772 C207.944087,102.429788 207.955647,102.050974 207.911612,101.737586 C207.850513,101.325234 207.690886,101.144349 207.25659,101.144349 L206.392952,101.144349 L206.392952,102.6772 L205.529313,102.6772 L205.529313,98.7538052 Z" id="Fill-54" fill="#FEFEFE" mask="url(#mask-2)"></path>
                        <polygon id="Fill-55" fill="#FEFEFE" mask="url(#mask-2)" points="209.50315 98.7540801 212.440841 98.7540801 212.440841 99.4792703 210.366788 99.4792703 210.366788 100.319919 212.270205 100.319919 212.270205 100.990129 210.366788 100.990129 210.366788 101.951735 212.484876 101.951735 212.484876 102.677475 209.50315 102.677475"></polygon>
                        <path d="M213.93407,101.951954 L214.704134,101.951954 C215.205033,101.951954 215.683364,101.644065 215.683364,100.775926 C215.683364,99.9847592 215.408695,99.4794902 214.550011,99.4794902 L213.93407,99.4794902 L213.93407,101.951954 Z M213.070432,98.7543 L214.764682,98.7543 C215.782443,98.7543 216.547002,99.3915218 216.547002,100.693455 C216.547002,101.830998 215.964088,102.677145 214.764682,102.677145 L213.070432,102.677145 L213.070432,98.7543 Z" id="Fill-56" fill="#FEFEFE" mask="url(#mask-2)"></path>
                        <polygon id="Fill-57" fill="#FEFEFE" mask="url(#mask-2)" points="217.148577 98.7540801 220.086268 98.7540801 220.086268 99.4792703 218.012215 99.4792703 218.012215 100.319919 219.915632 100.319919 219.915632 100.990129 218.012215 100.990129 218.012215 101.951735 220.130303 101.951735 220.130303 102.677475 217.148577 102.677475"></polygon>
                        <polygon id="Fill-58" fill="#FEFEFE" mask="url(#mask-2)" points="220.715639 98.7540801 223.65333 98.7540801 223.65333 99.4792703 221.579277 99.4792703 221.579277 100.319919 223.482694 100.319919 223.482694 100.990129 221.579277 100.990129 221.579277 101.951735 223.697365 101.951735 223.697365 102.677475 220.715639 102.677475"></polygon>
                        <polygon id="Fill-59" fill="#FEFEFE" mask="url(#mask-2)" points="224.282206 98.7540801 225.498125 98.7540801 226.416807 101.451964 226.427816 101.451964 227.297509 98.7540801 228.512877 98.7540801 228.512877 102.677475 227.704283 102.677475 227.704283 99.8965708 227.692723 99.8965708 226.730006 102.677475 226.064526 102.677475 225.101809 99.9246108 225.091351 99.9246108 225.091351 102.677475 224.282206 102.677475"></polygon>
                    </g>
                </g>
            </g>
        </g>
    </g>
</svg>