<?xml version="1.0" encoding="UTF-8" standalone="no"?>
<svg width="266px" height="120px" viewBox="0 0 266 120" version="1.1" xmlns="http://www.w3.org/2000/svg" xmlns:xlink="http://www.w3.org/1999/xlink">
    <!-- Generator: Sketch 3.8.3 (29802) - http://www.bohemiancoding.com/sketch -->
    <title>Survey Companies</title>
    <desc>Created with Sketch.</desc>
    <defs>
        <polygon id="path-1" points="0 118.860244 265.937861 118.860244 265.937861 0.227408412 0 0.227408412"></polygon>
    </defs>
    <g id="PanelPlace" stroke="none" stroke-width="1" fill="none" fill-rule="evenodd">
        <g id="Account-Verified" transform="translate(-307.000000, -891.000000)">
            <g id="Group-Copy" transform="translate(75.000000, 862.000000)">
                <g id="Survey-Companies" transform="translate(232.000000, 29.000000)">
                    <polygon id="Fill-1" fill="#E7E5E4" points="32.671668 111.283582 99.0833648 111.283582 99.0833648 49.5614654 32.671668 49.5614654"></polygon>
                    <path d="M0,119.175577 L58.0801189,119.175577 L58.0801189,49.4409769 L0,49.4409769 L0,119.175577 Z M2.72540984,116.461872 L55.3541639,116.461872 L55.3541639,52.1552239 L2.72540984,52.1552239 L2.72540984,116.461872 Z" id="Fill-3" fill="#C2C1C1"></path>
                    <path d="M9.71385123,80.8250746 L48.9570275,80.8250746 L9.71385123,80.8250746 Z" id="Fill-4" fill="#FEFEFE"></path>
                    <polygon id="Fill-5" fill="#C2C1C1" points="9.71336066 82.1823609 48.9565369 82.1823609 48.9565369 79.4686567 9.71336066 79.4686567"></polygon>
                    <path d="M9.71385123,92.4227408 L37.090048,92.4227408 L9.71385123,92.4227408 Z" id="Fill-6" fill="#FEFEFE"></path>
                    <polygon id="Fill-7" fill="#C2C1C1" points="9.71336066 93.7796472 37.0895574 93.7796472 37.0895574 91.065943 9.71336066 91.065943"></polygon>
                    <path d="M9.71385123,104.019919 L49.1450807,104.019919 L9.71385123,104.019919 Z" id="Fill-8" fill="#FEFEFE"></path>
                    <polygon id="Fill-9" fill="#C2C1C1" points="9.71336066 105.376934 49.1451352 105.376934 49.1451352 102.663229 9.71336066 102.663229"></polygon>
                    <g id="Group-82" transform="translate(0.000000, 0.315332)">
                        <path d="M11.6202754,65.4578019 C11.6202754,66.7088195 12.5986975,67.1962008 13.7095746,67.1962008 C14.4367139,67.1962008 15.547591,66.9850746 15.547591,66.0238806 C15.547591,65.0100407 14.1325582,64.8390773 12.7442344,64.4705563 C11.3422836,64.1014925 9.9277959,63.5614654 9.9277959,61.7970149 C9.9277959,59.8746269 11.7521852,58.9530529 13.4582918,58.9530529 C15.428218,58.9530529 17.2406156,59.8089552 17.2406156,61.9815468 L15.2303533,61.9815468 C15.1643984,60.8488467 14.357132,60.5595658 13.3656279,60.5595658 C12.7044434,60.5595658 11.9375131,60.8358209 11.9375131,61.6260516 C11.9375131,62.3500678 12.3866607,62.4423338 14.7539516,63.0480326 C15.4418451,63.2189959 17.5578533,63.6537313 17.5578533,65.7867028 C17.5578533,67.512076 16.1956934,68.8027137 13.6305377,68.8027137 C11.5406934,68.8027137 9.58384918,67.7753053 9.61001311,65.4578019 L11.6202754,65.4578019 L11.6202754,65.4578019 Z" id="Fill-10" fill="#404041"></path>
                        <path d="M25.0029643,68.5785617 L23.2178209,68.5785617 L23.2178209,67.6303935 L23.1774848,67.6303935 C22.7016283,68.3940299 21.881825,68.7630936 21.0881857,68.7630936 C19.0915504,68.7630936 18.5889848,67.6434193 18.5889848,65.958209 L18.5889848,61.7709634 L20.4667922,61.7709634 L20.4667922,65.6157395 C20.4667922,66.7354138 20.7971119,67.2884668 21.6703332,67.2884668 C22.6885463,67.2884668 23.125157,66.7218453 23.125157,65.3394844 L23.125157,61.7709634 L25.0029643,61.7709634 L25.0029643,68.5785617 Z" id="Fill-12" fill="#404041"></path>
                        <path d="M26.430643,61.7709634 L28.2152414,61.7709634 L28.2152414,63.0350068 L28.2419504,63.0350068 C28.5858971,62.1791045 29.5114463,61.5864315 30.4239135,61.5864315 C30.5563684,61.5864315 30.7149873,61.612483 30.8343602,61.6521031 L30.8343602,63.390502 C30.6626594,63.350882 30.3846676,63.3248304 30.1595488,63.3248304 C28.784307,63.3248304 28.3079053,64.312076 28.3079053,65.5104478 L28.3079053,68.5785617 L26.430643,68.5785617 L26.430643,61.7709634 Z" id="Fill-14" fill="#404041"></path>
                        <polygon id="Fill-16" fill="#404041" points="35.3568508 68.5785617 33.2675516 68.5785617 30.9264246 61.7709634 32.8968959 61.7709634 34.3386377 66.4189959 34.3653467 66.4189959 35.8065434 61.7709634 37.6712689 61.7709634"></polygon>
                        <mask id="mask-2" fill="white">
                            <use xlink:href="#path-1"></use>
                        </mask>
                        <g id="Clip-19"></g>
                        <polygon id="Fill-18" fill="#FEFEFE" mask="url(#mask-2)" points="39.2475369 105.434464 106.045697 105.434464 106.045697 24.5584803 39.2475369 24.5584803"></polygon>
                        <path d="M40.6102418,104.077612 L104.682992,104.077612 L104.682992,25.9153324 L40.6102418,25.9153324 L40.6102418,104.077612 Z M37.884832,106.791316 L107.408402,106.791316 L107.408402,23.2016282 L37.884832,23.2016282 L37.884832,106.791316 Z" id="Fill-20" fill="#C2C1C1" mask="url(#mask-2)"></path>
                        <polygon id="Fill-21" fill="#E7E5E4" mask="url(#mask-2)" points="166.21675 111.254817 232.628447 111.254817 232.628447 49.246133 166.21675 49.246133"></polygon>
                        <path d="M210.583152,116.14654 L263.212451,116.14654 L263.212451,51.8393487 L210.583152,51.8393487 L210.583152,116.14654 Z M207.857742,118.860244 L265.937861,118.860244 L265.937861,49.1256445 L207.857742,49.1256445 L207.857742,118.860244 Z" id="Fill-22" fill="#C2C1C1" mask="url(#mask-2)"></path>
                        <path d="M217.571484,80.5099593 L256.81466,80.5099593" id="Fill-23" fill="#FEFEFE" mask="url(#mask-2)"></path>
                        <polygon id="Fill-24" fill="#C2C1C1" mask="url(#mask-2)" points="217.571102 81.8670285 256.814279 81.8670285 256.814279 79.1533243 217.571102 79.1533243"></polygon>
                        <path d="M217.571484,92.1072999 L244.947681,92.1072999" id="Fill-25" fill="#FEFEFE" mask="url(#mask-2)"></path>
                        <polygon id="Fill-26" fill="#C2C1C1" mask="url(#mask-2)" points="217.571102 93.4643148 244.947299 93.4643148 244.947299 90.7506106 217.571102 90.7506106"></polygon>
                        <path d="M217.571484,103.704586 L257.002714,103.704586" id="Fill-27" fill="#FEFEFE" mask="url(#mask-2)"></path>
                        <polygon id="Fill-28" fill="#C2C1C1" mask="url(#mask-2)" points="217.571102 105.061601 257.002877 105.061601 257.002877 102.347897 217.571102 102.347897"></polygon>
                        <path d="M203.543909,64.9442062 L205.990236,64.9442062 L204.800323,61.4945455 L204.774159,61.4945455 L203.543909,64.9442062 Z M203.742318,59.1770421 L205.871954,59.1770421 L209.40245,68.5783989 L207.24665,68.5783989 L206.532593,66.4850475 L203.001552,66.4850475 L202.260786,68.5783989 L200.158405,68.5783989 L203.742318,59.1770421 Z" id="Fill-29" fill="#404041" mask="url(#mask-2)"></path>
                        <path d="M214.453561,67.0642605 C216.318286,67.0642605 217.019261,65.4837992 217.019261,63.9174491 C217.019261,62.2713161 216.318286,60.6908548 214.453561,60.6908548 C212.588835,60.6908548 211.888405,62.2713161 211.888405,63.9174491 C211.888405,65.4837992 212.588835,67.0642605 214.453561,67.0642605 M214.453561,58.9529986 C217.37629,58.9529986 219.095479,61.1255902 219.095479,63.9174491 C219.095479,66.6295251 217.37629,68.8026594 214.453561,68.8026594 C211.531376,68.8026594 209.811643,66.6295251 209.811643,63.9174491 C209.811643,61.1255902 211.531376,58.9529986 214.453561,58.9529986" id="Fill-30" fill="#404041" mask="url(#mask-2)"></path>
                        <path d="M225.390303,65.1943555 C225.390303,64.114844 224.953693,62.9951696 223.750152,62.9951696 C222.519902,62.9951696 222.123627,64.0882497 222.123627,65.1943555 C222.123627,66.3004613 222.546611,67.3539213 223.763779,67.3539213 C224.992939,67.3539213 225.390303,66.3004613 225.390303,65.1943555 L225.390303,65.1943555 Z M220.31232,61.7707463 L222.096918,61.7707463 L222.096918,62.6396744 L222.123627,62.6396744 C222.57332,61.9156581 223.313541,61.5867571 224.160053,61.5867571 C226.30277,61.5867571 227.267566,63.3115875 227.267566,65.2470014 C227.267566,67.0640977 226.26298,68.7628765 224.265799,68.7628765 C223.446541,68.7628765 222.665984,68.4073813 222.216291,67.7360109 L222.189582,67.7360109 L222.189582,70.9750882 L220.31232,70.9750882 L220.31232,61.7707463 Z" id="Fill-31" fill="#404041" mask="url(#mask-2)"></path>
                        <path d="M228.444943,68.5785617 L230.32275,68.5785617 L230.32275,61.7709634 L228.444943,61.7709634 L228.444943,68.5785617 Z M228.444943,60.7175034 L230.32275,60.7175034 L230.32275,59.1766621 L228.444943,59.1766621 L228.444943,60.7175034 Z" id="Fill-32" fill="#404041" mask="url(#mask-2)"></path>
                        <path d="M231.803574,61.7709634 L233.588173,61.7709634 L233.588173,62.7191316 L233.628509,62.7191316 C234.104365,61.9549525 234.924714,61.5864315 235.717808,61.5864315 C237.714988,61.5864315 238.217554,62.7055631 238.217554,64.3913161 L238.217554,68.5785617 L236.339201,68.5785617 L236.339201,64.7332429 C236.339201,63.6141113 236.008882,63.0610583 235.13566,63.0610583 C234.117447,63.0610583 233.680836,63.6276798 233.680836,65.0100407 L233.680836,68.5785617 L231.803574,68.5785617 L231.803574,61.7709634 Z" id="Fill-33" fill="#404041" mask="url(#mask-2)"></path>
                        <path d="M239.697615,68.5785617 L241.575422,68.5785617 L241.575422,61.7709634 L239.697615,61.7709634 L239.697615,68.5785617 Z M239.697615,60.7175034 L241.575422,60.7175034 L241.575422,59.1766621 L239.697615,59.1766621 L239.697615,60.7175034 Z" id="Fill-34" fill="#404041" mask="url(#mask-2)"></path>
                        <path d="M246.375959,67.3539213 C247.659082,67.3539213 248.04282,66.2608412 248.04282,65.1813297 C248.04282,64.0882497 247.659082,62.9951696 246.375959,62.9951696 C245.106463,62.9951696 244.72327,64.0882497 244.72327,65.1813297 C244.72327,66.2608412 245.106463,67.3539213 246.375959,67.3539213 M246.375959,61.5867571 C248.531758,61.5867571 249.920082,63.0087381 249.920082,65.1813297 C249.920082,67.3408955 248.531758,68.7628765 246.375959,68.7628765 C244.233787,68.7628765 242.844918,67.3408955 242.844918,65.1813297 C242.844918,63.0087381 244.233787,61.5867571 246.375959,61.5867571" id="Fill-35" fill="#404041" mask="url(#mask-2)"></path>
                        <path d="M251.136378,61.7709634 L252.920976,61.7709634 L252.920976,62.7191316 L252.961312,62.7191316 C253.437169,61.9549525 254.257517,61.5864315 255.050611,61.5864315 C257.047792,61.5864315 257.550357,62.7055631 257.550357,64.3913161 L257.550357,68.5785617 L255.672005,68.5785617 L255.672005,64.7332429 C255.672005,63.6141113 255.341685,63.0610583 254.468464,63.0610583 C253.450251,63.0610583 253.01364,63.6276798 253.01364,65.0100407 L253.01364,68.5785617 L251.136378,68.5785617 L251.136378,61.7709634 Z" id="Fill-36" fill="#404041" mask="url(#mask-2)"></path>
                        <polygon id="Fill-37" fill="#FEFEFE" mask="url(#mask-2)" points="158.802 105.434464 225.60016 105.434464 225.60016 24.5584803 158.802 24.5584803"></polygon>
                        <path d="M160.164705,104.077612 L224.237455,104.077612 L224.237455,25.9153324 L160.164705,25.9153324 L160.164705,104.077612 Z M157.439295,106.791316 L226.962865,106.791316 L226.962865,23.2016282 L157.439295,23.2016282 L157.439295,106.791316 Z" id="Fill-38" fill="#C2C1C1" mask="url(#mask-2)"></path>
                        <polygon id="Fill-39" fill="#E7E5E4" mask="url(#mask-2)" points="87.5990328 100.668114 178.274508 100.668114 178.274508 26.0667571 87.5990328 26.0667571"></polygon>
                        <path d="M160.164705,104.077612 L224.237455,104.077612 L224.237455,25.9153324 L160.164705,25.9153324 L160.164705,104.077612 Z M157.439295,106.791316 L226.962865,106.791316 L226.962865,23.2016282 L157.439295,23.2016282 L157.439295,106.791316 Z" id="Fill-40" fill="#C2C1C1" mask="url(#mask-2)"></path>
                        <path d="M168.879421,60.7933786 L216.235597,60.7933786" id="Fill-41" fill="#FEFEFE" mask="url(#mask-2)"></path>
                        <polygon id="Fill-42" fill="#C2C1C1" mask="url(#mask-2)" points="168.879475 62.1503392 216.235107 62.1503392 216.235107 59.436635 168.879475 59.436635"></polygon>
                        <path d="M168.879421,74.7882768 L201.915204,74.7882768" id="Fill-43" fill="#FEFEFE" mask="url(#mask-2)"></path>
                        <polygon id="Fill-44" fill="#C2C1C1" mask="url(#mask-2)" points="168.88002 76.1449118 201.915258 76.1449118 201.915258 73.4312076 168.88002 73.4312076"></polygon>
                        <path d="M168.879421,88.7831208 L216.462896,88.7831208" id="Fill-45" fill="#FEFEFE" mask="url(#mask-2)"></path>
                        <polygon id="Fill-46" fill="#C2C1C1" mask="url(#mask-2)" points="168.879475 90.1400271 216.462406 90.1400271 216.462406 87.4263229 168.879475 87.4263229"></polygon>
                        <polygon id="Fill-47" fill="#404041" mask="url(#mask-2)" points="180.573282 46.3956038 178.243057 46.3956038 176.774606 40.8808141 176.742991 40.8808141 175.338315 46.3956038 172.991737 46.3956038 170.374254 38.1790502 172.768799 38.1790502 174.284672 43.7573406 174.316286 43.7573406 175.689348 38.1790502 177.892024 38.1790502 179.296155 43.7416011 179.328315 43.7416011 180.844733 38.1790502 183.174414 38.1790502"></polygon>
                        <path d="M189.269084,42.3748711 C188.885891,42.7086567 188.087891,42.7243962 187.385826,42.8513976 C186.68376,42.9946811 186.044924,43.2329444 186.044924,44.0595387 C186.044924,44.9018725 186.699568,45.1086567 187.433793,45.1086567 C189.205309,45.1086567 189.269084,43.7094708 189.269084,43.2172049 L189.269084,42.3748711 Z M184.034117,40.705943 C184.161666,38.5925102 186.060732,37.9569607 187.912375,37.9569607 C189.556342,37.9569607 191.535535,38.3222252 191.535535,40.2929172 L191.535535,44.5680868 C191.535535,45.3148982 191.615662,46.0617096 191.823338,46.3954953 L189.524727,46.3954953 C189.4446,46.1414925 189.380826,45.8712076 189.365018,45.6009227 C188.6466,46.3477341 187.593502,46.618019 186.587826,46.618019 C185.023441,46.618019 183.779018,45.8391859 183.779018,44.1545183 C183.779018,42.2956309 185.18315,41.8505834 186.587826,41.6595387 C187.97615,41.4532972 189.269084,41.5010583 189.269084,40.5789417 C189.269084,39.6096065 188.599178,39.4668657 187.801178,39.4668657 C186.938859,39.4668657 186.38015,39.8163908 186.300568,40.705943 L184.034117,40.705943 Z" id="Fill-48" fill="#404041" mask="url(#mask-2)"></path>
                        <path d="M193.289554,38.179213 L195.444263,38.179213 L195.444263,39.7048575 L195.476423,39.7048575 C195.89123,38.6720217 197.008648,37.9566893 198.109714,37.9566893 C198.269423,37.9566893 198.460747,37.988711 198.604648,38.0359294 L198.604648,40.1341655 C198.396972,40.0864043 198.061747,40.0543826 197.790841,40.0543826 C196.130521,40.0543826 195.556005,41.2462415 195.556005,42.6926459 L195.556005,46.3957666 L193.289554,46.3957666 L193.289554,38.179213 Z" id="Fill-49" fill="#404041" mask="url(#mask-2)"></path>
                        <path d="M203.120216,39.6572049 C201.635958,39.6572049 201.125216,40.9288467 201.125216,42.2797286 C201.125216,43.5671099 201.716085,44.9174491 203.120216,44.9174491 C204.620827,44.9174491 205.067249,43.6143284 205.067249,42.2634464 C205.067249,40.9288467 204.588667,39.6572049 203.120216,39.6572049 L203.120216,39.6572049 Z M205.099409,45.3467571 L205.067249,45.3467571 C204.5407,46.2368521 203.615151,46.6183989 202.562052,46.6183989 C200.071573,46.6183989 198.859311,44.4886839 198.859311,42.2156852 C198.859311,40.0072727 200.087925,37.9567978 202.514085,37.9567978 C203.487602,37.9567978 204.445311,38.3698236 204.956052,39.1806784 L204.988212,39.1806784 L204.988212,35.0482497 L207.254118,35.0482497 L207.254118,46.3958752 L205.099409,46.3958752 L205.099409,45.3467571 Z" id="Fill-50" fill="#404041" mask="url(#mask-2)"></path>
                        <path d="M210.715716,43.7256445 C210.731523,44.7107191 211.562228,45.1085482 212.455617,45.1085482 C213.110261,45.1085482 213.939875,44.8540027 213.939875,44.0594301 C213.939875,43.3761194 212.997974,43.1378562 211.370359,42.7877883 C210.061617,42.5023066 208.75233,42.0409769 208.75233,40.5945726 C208.75233,38.497422 210.572359,37.9568521 212.343875,37.9568521 C214.147552,37.9568521 215.807326,38.5603799 215.982843,40.5788331 L213.828134,40.5788331 C213.764359,39.7050204 213.093908,39.4667571 212.280101,39.4667571 C211.769359,39.4667571 211.019326,39.5617368 211.019326,40.229308 C211.019326,41.0401628 212.295908,41.150882 213.588843,41.4531886 C214.913392,41.7549525 216.206326,42.2320217 216.206326,43.7576662 C216.206326,45.9188602 214.323068,46.6184532 212.43981,46.6184532 C210.524392,46.6184532 208.656941,45.9031208 208.561552,43.7256445 L210.715716,43.7256445 Z" id="Fill-51" fill="#404041" mask="url(#mask-2)"></path>
                        <path d="M40.6102418,104.077612 L104.682992,104.077612 L104.682992,25.9153324 L40.6102418,25.9153324 L40.6102418,104.077612 Z M37.884832,106.791316 L107.408402,106.791316 L107.408402,23.2016282 L37.884832,23.2016282 L37.884832,106.791316 Z" id="Fill-52" fill="#C2C1C1" mask="url(#mask-2)"></path>
                        <path d="M52.7904254,42.0093894 L55.7431344,42.0093894 L54.3068434,37.8454817 L54.2752287,37.8454817 L52.7904254,42.0093894 Z M53.0297164,35.0481954 L55.5992328,35.0481954 L59.8612287,46.3958209 L57.2595525,46.3958209 L56.3977779,43.8688195 L52.136327,43.8688195 L51.2423926,46.3958209 L48.704491,46.3958209 L53.0297164,35.0481954 Z" id="Fill-53" fill="#404041" mask="url(#mask-2)"></path>
                        <polygon id="Fill-54" fill="#404041" mask="url(#mask-2)" points="60.8485902 46.3956581 63.354332 46.3956581 63.354332 35.0485753 60.8485902 35.0485753"></polygon>
                        <path d="M68.0617689,40.3883311 L70.0093467,40.3883311 C71.1741869,40.3883311 72.2114779,40.1337856 72.2114779,38.687924 C72.2114779,37.2415197 71.1741869,36.987517 70.0093467,36.987517 L68.0617689,36.987517 L68.0617689,40.3883311 Z M65.556027,35.0483039 L70.6956049,35.0483039 C73.5365721,35.0483039 74.6376377,36.8442334 74.6376377,38.687924 C74.6376377,40.5316147 73.5365721,42.3270014 70.6956049,42.3270014 L68.0617689,42.3270014 L68.0617689,46.3953867 L65.556027,46.3953867 L65.556027,35.0483039 Z" id="Fill-55" fill="#404041" mask="url(#mask-2)"></path>
                        <path d="M49.3247943,60.7933786 L96.6809705,60.7933786" id="Fill-56" fill="#FEFEFE" mask="url(#mask-2)"></path>
                        <polygon id="Fill-57" fill="#C2C1C1" mask="url(#mask-2)" points="49.3244672 62.1503392 96.6806434 62.1503392 96.6806434 59.436635 49.3244672 59.436635"></polygon>
                        <path d="M49.3247943,74.7882768 L82.360032,74.7882768" id="Fill-58" fill="#FEFEFE" mask="url(#mask-2)"></path>
                        <polygon id="Fill-59" fill="#C2C1C1" mask="url(#mask-2)" points="49.3250123 76.1449118 82.36025 76.1449118 82.36025 73.4312076 49.3250123 73.4312076"></polygon>
                        <path d="M49.3247943,88.7831208 L96.9082697,88.7831208" id="Fill-60" fill="#FEFEFE" mask="url(#mask-2)"></path>
                        <polygon id="Fill-61" fill="#C2C1C1" mask="url(#mask-2)" points="49.3244672 90.1400271 96.9079426 90.1400271 96.9079426 87.4263229 49.3244672 87.4263229"></polygon>
                        <polygon id="Fill-62" fill="#FEFEFE" mask="url(#mask-2)" points="94.4022008 94.7549525 171.354693 94.7549525 171.354693 1.58426052 94.4022008 1.58426052"></polygon>
                        <path d="M95.7643607,93.3981004 L169.991443,93.3981004 L169.991443,2.94111262 L95.7643607,2.94111262 L95.7643607,93.3981004 Z M93.0389508,96.1118046 L172.716852,96.1118046 L172.716852,0.227408412 L93.0389508,0.227408412 L93.0389508,96.1118046 Z" id="Fill-63" fill="#C2C1C1" mask="url(#mask-2)"></path>
                        <path d="M106.011084,42.2422252 L160.566158,42.2422252" id="Fill-64" fill="#FEFEFE" mask="url(#mask-2)"></path>
                        <polygon id="Fill-65" fill="#C2C1C1" mask="url(#mask-2)" points="106.010811 43.5989145 160.565885 43.5989145 160.565885 40.8852103 106.010811 40.8852103"></polygon>
                        <path d="M106.011084,56.1936499 L144.068707,56.1936499" id="Fill-66" fill="#FEFEFE" mask="url(#mask-2)"></path>
                        <polygon id="Fill-67" fill="#C2C1C1" mask="url(#mask-2)" points="106.011357 57.5506106 144.068434 57.5506106 144.068434 54.8369064 106.011357 54.8369064"></polygon>
                        <polygon id="Fill-68" fill="#404041" mask="url(#mask-2)" points="109.518905 16.0042334 105.659724 16.0042334 105.659724 13.6340841 116.20815 13.6340841 116.20815 16.0042334 112.349515 16.0042334 112.349515 26.4536228 109.518905 26.4536228"></polygon>
                        <path d="M119.943052,24.783772 C121.69222,24.783772 122.214954,23.2934057 122.214954,21.8214925 C122.214954,20.3311262 121.69222,18.8407598 119.943052,18.8407598 C118.211872,18.8407598 117.688593,20.3311262 117.688593,21.8214925 C117.688593,23.2934057 118.211872,24.783772 119.943052,24.783772 M119.943052,16.92 C122.882134,16.92 124.775204,18.8586703 124.775204,21.8214925 C124.775204,24.7658616 122.882134,26.7050746 119.943052,26.7050746 C117.021958,26.7050746 115.128343,24.7658616 115.128343,21.8214925 C115.128343,18.8586703 117.021958,16.92 119.943052,16.92" id="Fill-69" fill="#404041" mask="url(#mask-2)"></path>
                        <polygon id="Fill-70" fill="#404041" mask="url(#mask-2)" points="126.508619 26.4537313 129.068869 26.4537313 129.068869 13.6341927 126.508619 13.6341927"></polygon>
                        <path d="M139.834837,26.4535685 L137.399956,26.4535685 L137.399956,25.1607598 L137.346538,25.1607598 C136.6968,26.2022795 135.578837,26.7048575 134.497395,26.7048575 C131.77471,26.7048575 131.088997,25.1786703 131.088997,22.8807056 L131.088997,17.1710719 L133.649247,17.1710719 L133.649247,22.4139484 C133.649247,23.9401357 134.10003,24.6940027 135.290489,24.6940027 C136.679358,24.6940027 137.274042,23.9216825 137.274042,22.0367436 L137.274042,17.1710719 L139.834837,17.1710719 L139.834837,26.4535685 Z" id="Fill-71" fill="#404041" mask="url(#mask-2)"></path>
                        <path d="M141.783614,17.1710719 L144.21795,17.1710719 L144.21795,18.4638806 L144.271914,18.4638806 C144.921651,17.4223609 146.039614,16.9197829 147.121057,16.9197829 C149.843741,16.9197829 150.529455,18.4459701 150.529455,20.7439349 L150.529455,26.4535685 L147.968659,26.4535685 L147.968659,21.210692 C147.968659,19.6845047 147.518422,18.9306377 146.327963,18.9306377 C144.939094,18.9306377 144.344409,19.7029579 144.344409,21.5878969 L144.344409,26.4535685 L141.783614,26.4535685 L141.783614,17.1710719 Z" id="Fill-72" fill="#404041" mask="url(#mask-2)"></path>
                        <path d="M158.284554,21.9110448 C157.851759,22.2882497 156.950193,22.3061601 156.157099,22.4499864 C155.363459,22.6117232 154.641771,22.8809227 154.641771,23.8144369 C154.641771,24.7658616 155.381447,24.9992402 156.210517,24.9992402 C158.212058,24.9992402 158.284554,23.4193216 158.284554,22.8624695 L158.284554,21.9110448 Z M152.369869,20.0261058 C152.514316,17.6380461 154.660304,16.92 156.751783,16.92 C158.609423,16.92 160.844804,17.332483 160.844804,19.5593487 L160.844804,24.3886567 C160.844804,25.2326187 160.935287,26.0765807 161.169673,26.4537856 L158.572902,26.4537856 C158.482964,26.166133 158.410468,25.8611126 158.39248,25.5555495 C157.581398,26.4000543 156.390939,26.7050746 155.254988,26.7050746 C153.487832,26.7050746 152.081521,25.8252917 152.081521,23.9218996 C152.081521,21.8209498 153.668255,21.3189145 155.254988,21.1029037 C156.823734,20.8700678 158.284554,20.9237992 158.284554,19.8822795 C158.284554,18.7870285 157.52689,18.6252917 156.625869,18.6252917 C155.651808,18.6252917 155.021148,19.0204071 154.930664,20.0261058 L152.369869,20.0261058 Z" id="Fill-73" fill="#404041" mask="url(#mask-2)"></path>
                        <polygon id="Fill-74" fill="#404041" mask="url(#mask-2)" points="106.038066 82.9649932 160.808447 82.9649932 160.808447 68.7739484 106.038066 68.7739484"></polygon>
                        <path d="M122.146818,77.0291995 C122.146818,77.528521 122.010548,78.3420896 120.850068,78.3420896 C120.201966,78.3420896 119.569671,77.9898507 119.569671,77.143175 L119.569671,76.8072185 L120.343687,76.8072185 L120.343687,76.9803528 C120.343687,77.354844 120.436351,77.6262144 120.839712,77.6262144 C121.291585,77.6262144 121.291585,77.262578 121.291585,76.9917503 L121.291585,74.376825 L122.146818,74.376825 L122.146818,77.0291995 Z" id="Fill-75" fill="#FEFEFE" mask="url(#mask-2)"></path>
                        <path d="M124.643294,77.6259973 C125.411314,77.6259973 125.700208,76.975251 125.700208,76.3293894 C125.700208,75.6515061 125.411314,75.0007598 124.643294,75.0007598 C123.875273,75.0007598 123.586925,75.6515061 123.586925,76.3293894 C123.586925,76.975251 123.875273,77.6259973 124.643294,77.6259973 M124.643294,74.2848847 C125.84738,74.2848847 126.555441,75.1793216 126.555441,76.3293894 C126.555441,77.4468928 125.84738,78.3418725 124.643294,78.3418725 C123.439208,78.3418725 122.731146,77.4468928 122.731146,76.3293894 C122.731146,75.1793216 123.439208,74.2848847 124.643294,74.2848847" id="Fill-76" fill="#FEFEFE" mask="url(#mask-2)"></path>
                        <polygon id="Fill-77" fill="#FEFEFE" mask="url(#mask-2)" points="127.140914 78.2502035 127.996148 78.2502035 127.996148 74.3772049 127.140914 74.3772049"></polygon>
                        <polygon id="Fill-78" fill="#FEFEFE" mask="url(#mask-2)" points="128.749015 74.3769878 129.599343 74.3769878 131.222597 76.9750882 131.233498 76.9750882 131.233498 74.3769878 132.033679 74.3769878 132.033679 78.2499864 131.17899 78.2499864 129.560642 75.6567707 129.550285 75.6567707 129.550285 78.2499864 128.749015 78.2499864"></polygon>
                        <polygon id="Fill-79" fill="#FEFEFE" mask="url(#mask-2)" points="134.303073 74.3769878 135.153401 74.3769878 136.776655 76.9750882 136.787557 76.9750882 136.787557 74.3769878 137.587737 74.3769878 137.587737 78.2499864 136.733048 78.2499864 135.1147 75.6567707 135.104343 75.6567707 135.104343 78.2499864 134.303073 78.2499864"></polygon>
                        <path d="M140.08552,77.6259973 C140.853541,77.6259973 141.142434,76.975251 141.142434,76.3293894 C141.142434,75.6515061 140.853541,75.0007598 140.08552,75.0007598 C139.3175,75.0007598 139.029152,75.6515061 139.029152,76.3293894 C139.029152,76.975251 139.3175,77.6259973 140.08552,77.6259973 M140.08552,74.2848847 C141.289607,74.2848847 141.997668,75.1793216 141.997668,76.3293894 C141.997668,77.4468928 141.289607,78.3418725 140.08552,78.3418725 C138.881434,78.3418725 138.173373,77.4468928 138.173373,76.3293894 C138.173373,75.1793216 138.881434,74.2848847 140.08552,74.2848847" id="Fill-80" fill="#FEFEFE" mask="url(#mask-2)"></path>
                        <polygon id="Fill-81" fill="#FEFEFE" mask="url(#mask-2)" points="146.287954 78.2498236 145.437626 78.2498236 144.778622 75.6137313 144.76772 75.6137313 144.119073 78.2498236 143.253482 78.2498236 142.223823 74.376825 143.079056 74.376825 143.694454 77.01346 143.705355 77.01346 144.381257 74.376825 145.181982 74.376825 145.846437 77.0454817 145.857339 77.0454817 146.49454 74.376825 147.333966 74.376825"></polygon>
                    </g>
                </g>
            </g>
        </g>
    </g>
</svg>