<?xml version="1.0" encoding="UTF-8" standalone="no"?>
<svg width="258px" height="154px" viewBox="0 0 258 154" version="1.1" xmlns="http://www.w3.org/2000/svg" xmlns:xlink="http://www.w3.org/1999/xlink">
    <!-- Generator: Sketch 3.8.3 (29802) - http://www.bohemiancoding.com/sketch -->
    <title>Survey Email</title>
    <desc>Created with Sketch.</desc>
    <defs>
        <polygon id="path-1" points="0 153.197103 257.454817 153.197103 257.454817 0.220842577 0 0.220842577"></polygon>
    </defs>
    <g id="PanelPlace" stroke="none" stroke-width="1" fill="none" fill-rule="evenodd">
        <g id="Account-Verified" transform="translate(-315.000000, -1088.000000)">
            <g id="Group-Copy-2" transform="translate(75.000000, 1088.000000)">
                <g id="Survey-Email" transform="translate(240.000000, 0.000000)">
                    <polygon id="Fill-1" fill="#E7E5E4" points="83.348127 24.8237668 68.0936283 24.8237668 68.0936283 123.917091 108.062405 123.917091 108.062405 49.0759957"></polygon>
                    <path d="M68.2041902,127.192724 L257.454817,127.192724 L257.454817,0.663190923 L68.2041902,0.663190923 L68.2041902,127.192724 Z M71.5203856,123.876769 L254.137959,123.876769 L254.137959,3.97914554 L71.5203856,3.97914554 L71.5203856,123.876769 Z" id="Fill-3" fill="#C2C1C1"></path>
                    <path d="M70.4204699,21.7749455 L256.122105,21.7749455 L70.4204699,21.7749455 Z" id="Fill-4" fill="#FEFEFE"></path>
                    <polygon id="Fill-5" fill="#C2C1C1" points="70.4207352 23.4325249 256.121707 23.4325249 256.121707 20.1165703 70.4207352 20.1165703"></polygon>
                    <polygon id="Fill-6" fill="#404041" points="126.030015 97.5195061 132.37456 97.5195061 132.37456 99.0872895 127.895707 99.0872895 127.895707 100.905096 132.006463 100.905096 132.006463 102.354168 127.895707 102.354168 127.895707 104.433935 132.469404 104.433935 132.469404 106.001718 126.030015 106.001718"></polygon>
                    <g id="Group-61" transform="translate(0.000000, 0.442348)">
                        <path d="M133.598966,99.4170943 L135.19074,99.4170943 L135.19074,100.248736 L135.214616,100.248736 C135.654344,99.6193676 136.295696,99.2506334 137.091583,99.2506334 C137.864257,99.2506334 138.553362,99.5364687 138.885645,100.272611 C139.241804,99.7380787 139.88382,99.2506334 140.739398,99.2506334 C142.046642,99.2506334 142.985125,99.8567899 142.985125,101.448448 L142.985125,105.559569 L141.297845,105.559569 L141.297845,102.078479 C141.297845,101.258776 141.226215,100.581658 140.263856,100.581658 C139.314097,100.581658 139.135023,101.365549 139.135023,102.138167 L139.135023,105.559569 L137.448406,105.559569 L137.448406,102.113629 C137.448406,101.401362 137.495496,100.581658 136.426354,100.581658 C136.093408,100.581658 135.286246,100.795205 135.286246,101.995581 L135.286246,105.559569 L133.598966,105.559569 L133.598966,99.4170943 L133.598966,99.4170943 Z" id="Fill-7" fill="#404041"></path>
                        <path d="M148.141345,102.553656 C147.856152,102.803016 147.262553,102.815616 146.739921,102.909789 C146.217288,103.016563 145.741746,103.195625 145.741746,103.812392 C145.741746,104.443087 146.228563,104.596947 146.775072,104.596947 C148.094255,104.596947 148.141345,103.551758 148.141345,103.183024 L148.141345,102.553656 Z M144.244815,101.306194 C144.339659,99.7258097 145.753021,99.250965 147.131895,99.250965 C148.355571,99.250965 149.828625,99.5241997 149.828625,100.997147 L149.828625,104.193064 C149.828625,104.751471 149.888317,105.309877 150.042188,105.559237 L148.331695,105.559237 C148.272003,105.368901 148.224913,105.167291 148.212975,104.965681 C147.678404,105.524088 146.893792,105.725698 146.145659,105.725698 C144.981011,105.725698 144.054466,105.143416 144.054466,103.88468 C144.054466,102.493969 145.099731,102.16171 146.145659,102.019124 C147.179648,101.8646 148.141345,101.900413 148.141345,101.211357 C148.141345,100.48649 147.642589,100.379716 147.04899,100.379716 C146.406975,100.379716 145.991124,100.641013 145.932096,101.306194 L144.244815,101.306194 Z" id="Fill-9" fill="#404041"></path>
                        <mask id="mask-2" fill="white">
                            <use xlink:href="#path-1"></use>
                        </mask>
                        <g id="Clip-12"></g>
                        <path d="M151.183357,105.559436 L152.869974,105.559436 L152.869974,99.4169617 L151.183357,99.4169617 L151.183357,105.559436 Z M151.183357,98.4672723 L152.869974,98.4672723 L152.869974,97.0772241 L151.183357,97.0772241 L151.183357,98.4672723 Z" id="Fill-11" fill="#404041" mask="url(#mask-2)"></path>
                        <polygon id="Fill-13" fill="#404041" mask="url(#mask-2)" points="154.248848 105.559436 155.935465 105.559436 155.935465 97.0772241 154.248848 97.0772241"></polygon>
                        <path d="M162.613421,100.914447 L164.65686,100.914447 C165.488562,100.914447 165.940228,100.55765 165.940228,99.702797 C165.940228,98.883093 165.488562,98.5256331 164.65686,98.5256331 L162.613421,98.5256331 L162.613421,100.914447 Z M160.747729,97.0772241 L165.322089,97.0772241 C166.842896,97.0772241 167.805256,98.1343504 167.805256,99.4169617 C167.805256,100.415064 167.401343,101.163807 166.46286,101.543815 L166.46286,101.567027 C167.37813,101.805112 167.638783,102.696441 167.698475,103.551957 C167.734289,104.085826 167.722351,105.083928 168.054634,105.559436 L166.189606,105.559436 C165.964104,105.024904 165.987981,104.2052 165.892475,103.527419 C165.761816,102.636754 165.417595,102.244808 164.479112,102.244808 L162.613421,102.244808 L162.613421,105.559436 L160.747729,105.559436 L160.747729,97.0772241 Z" id="Fill-14" fill="#404041" mask="url(#mask-2)"></path>
                        <path d="M173.282881,101.828921 C173.128347,100.973404 172.760249,100.521771 171.940485,100.521771 C170.870681,100.521771 170.561611,101.353413 170.538398,101.828921 L173.282881,101.828921 Z M170.538398,102.897985 C170.586151,103.967711 171.108784,104.454494 172.047267,104.454494 C172.724434,104.454494 173.270943,104.038673 173.378388,103.658665 L174.86338,103.658665 C174.387838,105.107737 173.378388,105.725831 171.987575,105.725831 C170.050917,105.725831 168.851118,104.394806 168.851118,102.494101 C168.851118,100.653083 170.121884,99.2504344 171.987575,99.2504344 C174.078768,99.2504344 175.088881,101.009217 174.970161,102.897985 L170.538398,102.897985 Z" id="Fill-15" fill="#404041" mask="url(#mask-2)"></path>
                        <path d="M180.15039,101.579627 C180.043609,100.890572 179.603881,100.521838 178.902838,100.521838 C177.821758,100.521838 177.465598,101.61544 177.465598,102.518042 C177.465598,103.39677 177.810483,104.45456 178.867023,104.45456 C179.651634,104.45456 180.1033,103.95584 180.210082,103.207098 L181.83767,103.207098 C181.624107,104.834568 180.495275,105.725897 178.879624,105.725897 C177.025871,105.725897 175.778318,104.418748 175.778318,102.57773 C175.778318,100.664424 176.919089,99.2505008 178.915439,99.2505008 C180.363953,99.2505008 181.695074,100.011181 181.801856,101.579627 L180.15039,101.579627 Z" id="Fill-16" fill="#404041" mask="url(#mask-2)"></path>
                        <path d="M186.922658,101.828921 C186.768787,100.973404 186.400026,100.521771 185.580925,100.521771 C184.511121,100.521771 184.202051,101.353413 184.178175,101.828921 L186.922658,101.828921 Z M184.178175,102.897985 C184.225928,103.967711 184.749224,104.454494 185.687707,104.454494 C186.364211,104.454494 186.91072,104.038673 187.018165,103.658665 L188.503157,103.658665 C188.027614,105.107737 187.018165,105.725831 185.628015,105.725831 C183.691357,105.725831 182.490895,104.394806 182.490895,102.494101 C182.490895,100.653083 183.762324,99.2504344 185.628015,99.2504344 C187.718545,99.2504344 188.729321,101.009217 188.609938,102.897985 L184.178175,102.897985 Z" id="Fill-17" fill="#404041" mask="url(#mask-2)"></path>
                        <path d="M189.655866,105.559436 L191.342483,105.559436 L191.342483,99.4169617 L189.655866,99.4169617 L189.655866,105.559436 Z M189.655866,98.4672723 L191.342483,98.4672723 L191.342483,97.0772241 L189.655866,97.0772241 L189.655866,98.4672723 Z" id="Fill-18" fill="#404041" mask="url(#mask-2)"></path>
                        <polygon id="Fill-19" fill="#404041" mask="url(#mask-2)" points="196.071975 105.55937 194.194345 105.55937 192.091214 99.4168954 193.862062 99.4168954 195.156705 103.610915 195.180581 103.610915 196.475224 99.4168954 198.151229 99.4168954"></polygon>
                        <path d="M202.986773,101.828921 C202.832238,100.973404 202.46414,100.521771 201.644377,100.521771 C200.574572,100.521771 200.265503,101.353413 200.242289,101.828921 L202.986773,101.828921 Z M200.242289,102.897985 C200.290043,103.967711 200.812675,104.454494 201.751158,104.454494 C202.428325,104.454494 202.974834,104.038673 203.082279,103.658665 L204.567271,103.658665 C204.091729,105.107737 203.082279,105.725831 201.691467,105.725831 C199.754809,105.725831 198.555009,104.394806 198.555009,102.494101 C198.555009,100.653083 199.825775,99.2504344 201.691467,99.2504344 C203.78266,99.2504344 204.792773,101.009217 204.674053,102.897985 L200.242289,102.897985 Z" id="Fill-20" fill="#404041" mask="url(#mask-2)"></path>
                        <path d="M208.582852,100.52197 C207.478559,100.52197 207.098523,101.472986 207.098523,102.482363 C207.098523,103.444653 207.537588,104.454693 208.582852,104.454693 C209.70041,104.454693 210.032693,103.480465 210.032693,102.470425 C210.032693,101.472986 209.67587,100.52197 208.582852,100.52197 L208.582852,100.52197 Z M210.05657,104.775014 L210.032693,104.775014 C209.640719,105.440857 208.951613,105.72603 208.167002,105.72603 C206.313912,105.72603 205.411243,104.133708 205.411243,102.435276 C205.411243,100.783931 206.32585,99.2506334 208.131187,99.2506334 C208.856107,99.2506334 209.569089,99.5596804 209.949788,100.165837 L209.973002,100.165837 L209.973002,97.0773567 L211.660282,97.0773567 L211.660282,105.559569 L210.05657,105.559569 L210.05657,104.775014 Z" id="Fill-21" fill="#404041" mask="url(#mask-2)"></path>
                        <path d="M83.1270031,11.4950883 C83.1270031,13.2651448 81.6917537,14.70029 79.9215686,14.70029 C78.1507203,14.70029 76.715471,13.2651448 76.715471,11.4950883 C76.715471,9.72503169 78.1507203,8.28988654 79.9215686,8.28988654 C81.6917537,8.28988654 83.1270031,9.72503169 83.1270031,11.4950883" id="Fill-22" fill="#6C6E70" mask="url(#mask-2)"></path>
                        <path d="M93.4486612,11.4950883 C93.4486612,13.2651448 92.0134118,14.70029 90.2432267,14.70029 C88.4723784,14.70029 87.037129,13.2651448 87.037129,11.4950883 C87.037129,9.72503169 88.4723784,8.28988654 90.2432267,8.28988654 C92.0134118,8.28988654 93.4486612,9.72503169 93.4486612,11.4950883" id="Fill-23" fill="#C2C1C1" mask="url(#mask-2)"></path>
                        <path d="M103.770319,11.4950883 C103.770319,13.2651448 102.33507,14.70029 100.564885,14.70029 C98.7940365,14.70029 97.3587871,13.2651448 97.3587871,11.4950883 C97.3587871,9.72503169 98.7940365,8.28988654 100.564885,8.28988654 C102.33507,8.28988654 103.770319,9.72503169 103.770319,11.4950883" id="Fill-24" fill="#939597" mask="url(#mask-2)"></path>
                        <polygon id="Fill-25" fill="#E7E5E4" mask="url(#mask-2)" points="150.335075 90.0852022 190.792658 90.0852022 190.792658 61.5679925 150.335075 61.5679925"></polygon>
                        <polygon id="Fill-26" fill="#FEFEFE" mask="url(#mask-2)" points="146.024684 83.4380396 184.49255 83.4380396 184.49255 56.9395831 146.024684 56.9395831"></polygon>
                        <path d="M147.682781,81.7793991 L182.834452,81.7793991 L182.834452,58.5975604 L147.682781,58.5975604 L147.682781,81.7793991 Z M144.366586,85.0953537 L186.150648,85.0953537 L186.150648,55.2816058 L144.366586,55.2816058 L144.366586,85.0953537 Z" id="Fill-27" fill="#404041" mask="url(#mask-2)"></path>
                        <polygon id="Fill-28" fill="#404041" mask="url(#mask-2)" points="165.258551 72.2023253 145.084144 58.3051595 146.96509 55.5748025 165.258551 68.17543 183.552011 55.5748025 185.432957 58.3051595"></polygon>
                        <path d="M158.294938,40.7869713 L158.294938,48.0820714" id="Fill-29" fill="#FEFEFE" mask="url(#mask-2)"></path>
                        <path d="M158.295204,49.7399824 C157.37927,49.7399824 156.637106,48.9978718 156.637106,48.0820051 L156.637106,40.786905 C156.637106,39.8710383 157.37927,39.1289276 158.295204,39.1289276 C159.211137,39.1289276 159.953301,39.8710383 159.953301,40.786905 L159.953301,48.0820051 C159.953301,48.9978718 159.211137,49.7399824 158.295204,49.7399824" id="Fill-30" fill="#404041" mask="url(#mask-2)"></path>
                        <path d="M165.70113,35.260336 L165.70113,48.0818061" id="Fill-31" fill="#FEFEFE" mask="url(#mask-2)"></path>
                        <path d="M165.700931,49.7399824 C164.784998,49.7399824 164.042833,48.9978718 164.042833,48.0820051 L164.042833,35.260535 C164.042833,34.3446683 164.784998,33.6025577 165.700931,33.6025577 C166.616864,33.6025577 167.359029,34.3446683 167.359029,35.260535 L167.359029,48.0820051 C167.359029,48.9978718 166.616864,49.7399824 165.700931,49.7399824" id="Fill-32" fill="#404041" mask="url(#mask-2)"></path>
                        <path d="M173.107256,40.7869713 L173.107256,48.0820714" id="Fill-33" fill="#FEFEFE" mask="url(#mask-2)"></path>
                        <path d="M173.107322,49.7399824 C172.191389,49.7399824 171.449224,48.9978718 171.449224,48.0820051 L171.449224,40.786905 C171.449224,39.8710383 172.191389,39.1289276 173.107322,39.1289276 C174.023255,39.1289276 174.76542,39.8710383 174.76542,40.786905 L174.76542,48.0820051 C174.76542,48.9978718 174.023255,49.7399824 173.107322,49.7399824" id="Fill-34" fill="#404041" mask="url(#mask-2)"></path>
                        <polygon id="Fill-35" fill="#FEFEFE" mask="url(#mask-2)" points="99.1098046 51.3973628 99.1098046 151.539192 1.65809769 151.539192 1.65809769 33.0488596 79.810874 33.0488596"></polygon>
                        <path d="M3.31619537,149.881149 L97.4517069,149.881149 L97.4517069,52.1082372 L79.1482982,34.7067706 L3.31619537,34.7067706 L3.31619537,149.881149 Z M100.767902,153.197103 L0,153.197103 L0,31.390816 L80.4734499,31.390816 L100.767902,50.6863559 L100.767902,153.197103 Z" id="Fill-36" fill="#C2C1C1" mask="url(#mask-2)"></path>
                        <path d="M16.3599193,72.6186765 L85.447544,72.6186765" id="Fill-37" fill="#FEFEFE" mask="url(#mask-2)"></path>
                        <polygon id="Fill-38" fill="#C2C1C1" mask="url(#mask-2)" points="16.359455 74.2767202 85.4470797 74.2767202 85.4470797 70.9607656 16.359455 70.9607656"></polygon>
                        <path d="M16.3599193,87.8167577 L64.5555131,87.8167577" id="Fill-39" fill="#FEFEFE" mask="url(#mask-2)"></path>
                        <polygon id="Fill-40" fill="#C2C1C1" mask="url(#mask-2)" points="16.359455 89.4750666 64.5550488 89.4750666 64.5550488 86.1591119 16.359455 86.1591119"></polygon>
                        <path d="M16.3599193,104.672882 L85.7791635,104.672882" id="Fill-41" fill="#FEFEFE" mask="url(#mask-2)"></path>
                        <polygon id="Fill-42" fill="#C2C1C1" mask="url(#mask-2)" points="16.359455 106.330727 85.7786992 106.330727 85.7786992 103.014772 16.359455 103.014772"></polygon>
                        <path d="M18.175271,54.5351181 C18.175271,55.9477147 19.2755846,56.4975 20.5244638,56.4975 C21.3415743,56.4975 22.5904535,56.2600776 22.5904535,55.1750973 C22.5904535,54.0297666 21.0000062,53.836778 19.4387414,53.4202941 C17.8628853,53.0038102 16.272438,52.395001 16.272438,50.4034386 C16.272438,48.2321515 18.3238365,47.1922682 20.2412607,47.1922682 C22.4564792,47.1922682 24.4932864,48.1585373 24.4932864,50.6110174 L22.2336308,50.6110174 C22.1593481,49.3323853 21.2527003,49.0054321 20.1371321,49.0054321 C19.3943044,49.0054321 18.5320936,49.3177951 18.5320936,50.2097869 C18.5320936,51.0275013 19.0374817,51.1309591 21.6983969,51.8147089 C22.4717337,52.0076975 24.850109,52.4991219 24.850109,54.9071682 C24.850109,56.8549599 23.3193532,58.310664 20.4349265,58.310664 C18.0857337,58.310664 15.8857697,57.1514062 15.9156154,54.5351181 L18.175271,54.5351181 Z" id="Fill-43" fill="#404041" mask="url(#mask-2)"></path>
                        <path d="M33.2205841,58.0583198 L31.2136226,58.0583198 L31.2136226,56.9885929 L31.1685224,56.9885929 C30.6339517,57.8507411 29.7120494,58.2665618 28.8199928,58.2665618 C26.5749285,58.2665618 26.0098488,57.0031831 26.0098488,55.1004883 L26.0098488,50.3732634 L28.1216021,50.3732634 L28.1216021,54.713848 C28.1216021,55.9772267 28.4930159,56.6019526 29.4746098,56.6019526 C30.6186972,56.6019526 31.1088308,55.9626365 31.1088308,54.4014851 L31.1088308,50.3732634 L33.2205841,50.3732634 L33.2205841,58.0583198 Z" id="Fill-44" fill="#404041" mask="url(#mask-2)"></path>
                        <path d="M34.8255563,50.3733961 L36.8325177,50.3733961 L36.8325177,51.7999197 L36.8623635,51.7999197 C37.2490319,50.8343138 38.2903172,50.1651541 39.3156848,50.1651541 C39.4642504,50.1651541 39.6426617,50.1943345 39.776636,50.2394315 L39.776636,52.2018134 C39.5829702,52.1567165 39.2705846,52.1275361 39.0178905,52.1275361 C37.4718802,52.1275361 36.9373095,53.24236 36.9373095,54.5946063 L36.9373095,58.0584525 L34.8255563,58.0584525 L34.8255563,50.3733961 Z" id="Fill-45" fill="#404041" mask="url(#mask-2)"></path>
                        <polygon id="Fill-46" fill="#404041" mask="url(#mask-2)" points="44.8609604 58.0583198 42.5117676 58.0583198 39.8806982 50.3732634 42.0959167 50.3732634 43.7162098 55.62043 43.7460555 55.62043 45.3663486 50.3732634 47.4628473 50.3732634"></polygon>
                        <path d="M53.5128478,53.3907821 C53.3198452,52.320392 52.8588941,51.7553533 51.8328632,51.7553533 C50.49511,51.7553533 50.1084416,52.7965631 50.0785959,53.3907821 L53.5128478,53.3907821 Z M50.0785959,54.7291014 C50.1382874,56.0667575 50.7922411,56.67623 51.9668375,56.67623 C52.8137938,56.67623 53.4982566,56.1556251 53.6322308,55.6801172 L55.4899635,55.6801172 C54.8957013,57.4939444 53.6322308,58.267225 51.8925548,58.267225 C49.4690792,58.267225 47.9681692,56.6019526 47.9681692,54.2230867 C47.9681692,51.9191615 49.5586165,50.1650215 51.8925548,50.1650215 C54.5090329,50.1650215 55.7725033,52.365489 55.6239378,54.7291014 L50.0785959,54.7291014 Z" id="Fill-47" fill="#404041" mask="url(#mask-2)"></path>
                        <path d="M60.6640242,59.0246553 C60.203073,60.2588536 59.4741733,60.7642051 58.0177003,60.7642051 C57.5859316,60.7642051 57.1554895,60.7343615 56.7243841,60.6899277 L56.7243841,58.9510411 C57.1256437,58.9808847 57.5414946,59.0399087 57.9580087,59.0246553 C58.6869085,58.9510411 58.9243481,58.1923507 58.6869085,57.5828783 L55.9802298,50.3733297 L58.2405486,50.3733297 L59.9802247,55.6357497 L60.0100704,55.6357497 L61.6893918,50.3733297 L63.8747645,50.3733297 L60.6640242,59.0246553 Z" id="Fill-48" fill="#404041" mask="url(#mask-2)"></path>
                        <polygon id="Fill-49" fill="#404041" mask="url(#mask-2)" points="17.7867455 137.462235 84.429671 137.462235 84.429671 120.121782 17.7867455 120.121782"></polygon>
                        <polygon id="Fill-50" fill="#FEFEFE" mask="url(#mask-2)" points="30.3574473 127.842983 28.9387789 127.842983 28.9387789 126.968234 32.8167378 126.968234 32.8167378 127.842983 31.3980694 127.842983 31.3980694 131.700101 30.3574473 131.700101"></polygon>
                        <path d="M34.0648211,129.870755 L35.2918134,129.870755 L34.6948982,128.134521 L34.6816334,128.134521 L34.0648211,129.870755 Z M34.1643069,126.967969 L35.2321219,126.967969 L37.0016437,131.700499 L35.9212272,131.700499 L35.5630781,130.646689 L33.7935563,130.646689 L33.4221424,131.700499 L32.3675923,131.700499 L34.1643069,126.967969 Z" id="Fill-51" fill="#FEFEFE" mask="url(#mask-2)"></path>
                        <polygon id="Fill-52" fill="#FEFEFE" mask="url(#mask-2)" points="37.414709 126.968035 38.4553311 126.968035 38.4553311 128.929754 40.3044416 126.968035 41.603727 126.968035 39.7546165 128.836907 41.7834648 131.700565 40.4768838 131.700565 39.0522463 129.573049 38.4553311 130.175889 38.4553311 131.700565 37.414709 131.700565"></polygon>
                        <polygon id="Fill-53" fill="#FEFEFE" mask="url(#mask-2)" points="42.2030961 126.968035 45.7428031 126.968035 45.7428031 127.842784 43.2437183 127.842784 43.2437183 128.856803 45.537199 128.856803 45.537199 129.665232 43.2437183 129.665232 43.2437183 130.825153 45.7958622 130.825153 45.7958622 131.700565 42.2030961 131.700565"></polygon>
                        <path d="M49.0544221,130.129201 C49.0544221,130.759232 49.545219,131.00395 50.1016766,131.00395 C50.4664581,131.00395 51.0235789,130.898502 51.0235789,130.415036 C51.0235789,129.903716 50.3139131,129.817501 49.6181753,129.632471 C48.9151419,129.446777 48.2061393,129.175532 48.2061393,128.286856 C48.2061393,127.319261 49.1214093,126.855027 49.9763244,126.855027 C50.9638874,126.855027 51.8718617,127.286101 51.8718617,128.379703 L50.8644015,128.379703 C50.8312396,127.809359 50.4266638,127.663457 49.9292344,127.663457 C49.5976149,127.663457 49.2135995,127.802727 49.2135995,128.200641 C49.2135995,128.565396 49.4391008,128.61182 50.6256355,128.916888 C50.9705198,129.003102 52.0303758,129.221292 52.0303758,130.294998 C52.0303758,131.163779 51.3479028,131.813042 50.0625455,131.813042 C49.0146278,131.813042 48.0336972,131.296417 48.046962,130.129201 L49.0544221,130.129201 Z" id="Fill-54" fill="#FEFEFE" mask="url(#mask-2)"></path>
                        <path d="M56.6661517,129.910945 C56.6661517,131.19024 55.9100591,131.812976 54.644599,131.812976 C53.3718432,131.812976 52.6290154,131.196209 52.6290154,129.910945 L52.6290154,126.968366 L53.6696375,126.968366 L53.6696375,129.910945 C53.6696375,130.42757 53.8029486,130.938227 54.644599,130.938227 C55.3867635,130.938227 55.6255296,130.613927 55.6255296,129.910945 L55.6255296,126.968366 L56.6661517,126.968366 L56.6661517,129.910945 Z" id="Fill-55" fill="#FEFEFE" mask="url(#mask-2)"></path>
                        <path d="M58.6046668,129.108484 L59.7447748,129.108484 C60.2090422,129.108484 60.461073,128.909526 60.461073,128.432029 C60.461073,127.97509 60.2090422,127.776133 59.7447748,127.776133 L58.6046668,127.776133 L58.6046668,129.108484 Z M57.5640447,126.967703 L60.1155254,126.967703 C60.9644715,126.967703 61.5010319,127.557943 61.5010319,128.273526 C61.5010319,128.830607 61.2755306,129.247754 60.752235,129.459975 L60.752235,129.473239 C61.262929,129.605877 61.4088416,130.10327 61.4413404,130.580104 C61.4619008,130.87854 61.4552684,131.43562 61.6403121,131.700234 L60.6003532,131.700234 C60.4736746,131.401798 60.4876026,130.944859 60.4345434,130.56684 C60.3609239,130.069447 60.1685846,129.851257 59.6452889,129.851257 L58.6046668,129.851257 L58.6046668,131.700234 L57.5640447,131.700234 L57.5640447,126.967703 Z" id="Fill-56" fill="#FEFEFE" mask="url(#mask-2)"></path>
                        <polygon id="Fill-57" fill="#FEFEFE" mask="url(#mask-2)" points="64.5932514 131.700366 63.4199815 131.700366 61.8819301 126.967836 62.9557141 126.967836 64.009601 130.295065 64.023529 130.295065 65.0906807 126.967836 66.1644648 126.967836"></polygon>
                        <polygon id="Fill-58" fill="#FEFEFE" mask="url(#mask-2)" points="66.5706987 126.968035 70.1104057 126.968035 70.1104057 127.842784 67.6113208 127.842784 67.6113208 128.856803 69.9048015 128.856803 69.9048015 129.665232 67.6113208 129.665232 67.6113208 130.825153 70.1634648 130.825153 70.1634648 131.700565 66.5706987 131.700565"></polygon>
                        <polygon id="Fill-59" fill="#FEFEFE" mask="url(#mask-2)" points="72.0948833 129.857823 70.3512278 126.9683 71.5244977 126.9683 72.6321069 128.837172 73.7317573 126.9683 74.8917625 126.9683 73.1348422 129.884351 73.1348422 131.700167 72.0948833 131.700167"></polygon>
                        <polygon id="Fill-60" fill="#C2C1C1" mask="url(#mask-2)" points="99.109871 53.2761164 78.1528427 53.2761164 78.1528427 33.0487933 81.469038 33.0487933 81.469038 49.9601618 99.109871 49.9601618"></polygon>
                    </g>
                </g>
            </g>
        </g>
    </g>
</svg>