<?xml version="1.0" encoding="UTF-8" standalone="no"?>
<svg width="19px" height="19px" viewBox="0 0 19 19" version="1.1" xmlns="http://www.w3.org/2000/svg" xmlns:xlink="http://www.w3.org/1999/xlink">
    <!-- Generator: Sketch 3.8.3 (29802) - http://www.bohemiancoding.com/sketch -->
    <title>Twitter</title>
    <desc>Created with Sketch.</desc>
    <defs></defs>
    <g id="Symbols" stroke="none" stroke-width="1" fill="none" fill-rule="evenodd">
        <g id="Footer" transform="translate(-266.000000, -50.000000)" fill="#4A4A4A">
            <g id="Group-2">
                <g id="Group-5" transform="translate(239.000000, 50.000000)">
                    <path d="M36.4881396,0 C31.2483142,0 27,4.24831417 27,9.48813963 C27,14.7279651 31.2483142,18.9762793 36.4881396,18.9762793 C41.7279651,18.9762793 45.9762793,14.7279651 45.9762793,9.48813963 C45.9762793,4.24714374 41.7279651,0 36.4881396,0 L36.4881396,0 Z M41.2084887,7.35803285 L41.2155893,7.66047228 C41.2155893,10.7488501 38.8661047,14.306922 34.5691396,14.306922 C33.2502977,14.306922 32.0227495,13.9202895 30.9885565,13.2572793 C31.1712218,13.2786201 31.3573984,13.2904805 31.5459938,13.2904805 C32.6406982,13.2904805 33.6476201,12.9168789 34.4469856,12.2906591 C33.424653,12.2716982 32.5623963,11.5956571 32.2647166,10.6682074 C32.4082115,10.6954784 32.5529158,10.7085483 32.7047207,10.7085483 C32.9182074,10.7085483 33.1245544,10.6812772 33.3202505,10.6279055 C32.2516468,10.412039 31.4463511,9.46917864 31.4463511,8.33772279 L31.4463511,8.30807187 C31.7618214,8.48359754 32.1211828,8.58796099 32.5042649,8.6010308 C31.8780452,8.18236756 31.4653121,7.46719507 31.4653121,6.65713963 C31.4653121,6.22899589 31.5803655,5.8281232 31.7807823,5.48300205 C32.9324086,6.8967269 34.6545031,7.82655647 36.5960144,7.9238193 C36.5556735,7.75301437 36.5355421,7.5739384 36.5355421,7.39131211 C36.5355421,6.10212115 37.5815955,5.05602875 38.8719959,5.05602875 C39.5432772,5.05602875 40.1505359,5.33946817 40.5774702,5.79371253 C41.108807,5.68813963 41.6093224,5.49365298 42.0611869,5.22679466 C41.8868316,5.77237166 41.5168193,6.23016632 41.0340945,6.51953593 C41.5049589,6.46378439 41.9568234,6.33687064 42.3754867,6.15186448 C42.0623963,6.61913963 41.6650739,7.03070226 41.2084887,7.35803285 L41.2084887,7.35803285 Z" id="Twitter"></path>
                </g>
            </g>
        </g>
    </g>
</svg>